<svg width="515" height="385" viewBox="0 0 515 385" fill="none" xmlns="http://www.w3.org/2000/svg">
<g opacity="0.7" filter="url(#filter0_f_2020_269)">
<rect x="4" y="97.3472" width="322" height="127" rx="16" transform="rotate(-5.58105 4 97.3472)" fill="white"/>
<rect x="4.54626" y="97.7962" width="321" height="126" rx="15.5" transform="rotate(-5.58105 4.54626 97.7962)" stroke="black" stroke-opacity="0.02"/>
<path d="M30.3595 114.73C32.2226 114.548 33.7105 114.885 34.823 115.741C35.9498 116.579 36.5926 117.81 36.7514 119.435C36.9116 121.075 36.5289 122.423 35.6031 123.478C34.6758 124.517 33.2726 125.128 31.3935 125.312L26.6163 125.778L27.2488 132.252L24.6213 132.508L22.9548 115.454L30.3595 114.73ZM30.7966 123.151C31.9591 123.038 32.8172 122.689 33.3709 122.104C33.9391 121.502 34.1741 120.699 34.0761 119.696C33.9796 118.709 33.5952 117.983 32.9228 117.518C32.2648 117.036 31.3545 116.851 30.1921 116.965L25.797 117.394L26.4015 123.581L30.7966 123.151ZM40.7232 120.132L40.8187 120.122C41.0909 119.453 41.5332 118.879 42.1456 118.401C42.758 117.923 43.4942 117.642 44.3541 117.558C44.7522 117.52 45.1303 117.523 45.4884 117.568L45.7172 119.909C45.2651 119.889 44.8479 119.898 44.4658 119.935C43.367 120.042 42.5215 120.438 41.9293 121.123C41.3355 121.792 41.104 122.795 41.2347 124.133L41.8883 130.821L39.4519 131.059L38.2195 118.447L40.5364 118.221L40.7232 120.132ZM52.2722 116.785C53.4984 116.665 54.6005 116.839 55.5785 117.306C56.555 117.757 57.3391 118.46 57.9308 119.415C58.5369 120.352 58.9037 121.474 59.0313 122.78C59.1589 124.086 59.0169 125.265 58.6054 126.318C58.2082 127.354 57.575 128.195 56.7059 128.843C55.8352 129.474 54.7868 129.85 53.5606 129.97C52.3345 130.09 51.2331 129.924 50.2566 129.473C49.2786 129.006 48.4865 128.304 47.8805 127.366C47.2888 126.411 46.9291 125.281 46.8015 123.975C46.6739 122.669 46.8087 121.498 47.2059 120.463C47.6174 119.41 48.2586 118.568 49.1293 117.936C49.9984 117.288 51.046 116.905 52.2722 116.785ZM53.3669 127.987C54.4816 127.878 55.3177 127.387 55.8753 126.512C56.4473 125.621 56.6633 124.458 56.5232 123.025C56.3832 121.592 55.947 120.501 55.2148 119.753C54.4969 118.987 53.5806 118.658 52.4659 118.767C51.3512 118.876 50.5079 119.377 49.9359 120.268C49.3624 121.144 49.1457 122.299 49.2857 123.732C49.4258 125.165 49.8627 126.264 50.5965 127.028C51.3287 127.777 52.2522 128.096 53.3669 127.987ZM60.4359 131.613C60.7862 131.579 61.042 131.482 61.2031 131.321C61.3643 131.161 61.4239 130.865 61.3819 130.435L60.0024 116.319L62.4388 116.081L63.8579 130.603C63.9622 131.67 63.7941 132.418 63.3537 132.847C62.9308 133.29 62.2257 133.56 61.2384 133.657C60.4741 133.731 59.9152 133.77 59.5617 133.772L59.3563 131.67C59.8372 131.655 60.197 131.636 60.4359 131.613ZM61.9813 111.399L62.2404 114.05L59.804 114.288L59.5449 111.637L61.9813 111.399ZM76.6261 123.713C76.3831 124.846 75.838 125.848 74.9906 126.718C74.1417 127.573 72.8733 128.083 71.1853 128.248C70.0228 128.361 68.9613 128.192 68.0007 127.739C67.0545 127.269 66.2864 126.564 65.6962 125.625C65.1045 124.67 64.7457 123.548 64.6196 122.258C64.492 120.952 64.6181 119.774 64.9978 118.724C65.3934 117.673 66.0027 116.834 66.8256 116.207C67.6629 115.562 68.6787 115.182 69.873 115.065C71.0355 114.951 72.0882 115.114 73.0313 115.552C73.9888 115.973 74.7618 116.645 75.3504 117.568C75.9533 118.474 76.3194 119.587 76.4485 120.909C76.4812 121.243 76.4982 121.499 76.4993 121.676L67.1359 122.591C67.2829 123.766 67.7035 124.697 68.3977 125.385C69.1078 126.071 69.9724 126.365 70.9916 126.265C71.9629 126.17 72.6896 125.874 73.1715 125.377C73.6519 124.864 73.974 124.294 74.1378 123.667L76.6261 123.713ZM70.0667 117.047C69.0794 117.144 68.3231 117.547 67.7977 118.258C67.2867 118.951 67.0213 119.772 67.0017 120.723L73.857 120.053C73.6522 119.108 73.224 118.346 72.5726 117.767C71.9212 117.188 71.0859 116.948 70.0667 117.047ZM83.9821 124.996C85.6701 124.831 86.6809 123.824 87.0147 121.974L89.51 122.092C89.3179 123.253 88.7949 124.316 87.9409 125.284C87.1029 126.25 85.8479 126.815 84.1759 126.978C82.9975 127.093 81.928 126.925 80.9674 126.472C80.0212 126.002 79.253 125.297 78.6629 124.358C78.0712 123.403 77.7116 122.273 77.584 120.967C77.4564 119.661 77.5912 118.49 77.9884 117.455C78.384 116.403 79.0012 115.563 79.84 114.935C80.6933 114.289 81.717 113.907 82.9113 113.791C84.5038 113.635 85.768 113.905 86.7042 114.602C87.6547 115.281 88.3312 116.034 88.7337 116.863L86.513 117.828C86.2469 117.243 85.8436 116.736 85.3033 116.306C84.7773 115.859 84.0446 115.682 83.1051 115.773C82.0381 115.878 81.2267 116.375 80.6706 117.265C80.1289 118.138 79.9281 119.291 80.0682 120.724C80.2066 122.141 80.6269 123.234 81.3288 124.001C82.0467 124.767 82.9311 125.098 83.9821 124.996ZM97.2536 123.289L97.459 125.391C97.1118 125.457 96.5162 125.531 95.6722 125.614C94.4938 125.729 93.6312 125.62 93.0843 125.288C92.5533 124.954 92.2349 124.246 92.1291 123.163L91.3425 115.113L89.2644 115.316L89.0846 113.477L91.1627 113.274L90.815 109.715L93.2514 109.477L93.5991 113.036L96.3699 112.765L96.5497 114.604L93.7789 114.875L94.5024 122.28C94.5569 122.837 94.6954 123.185 94.918 123.324C95.1406 123.463 95.5226 123.506 96.064 123.453L97.2536 123.289ZM111.612 124.008C111.49 123.907 111.374 123.71 111.265 123.415C111.172 123.119 111.106 122.771 111.067 122.373C110.748 123.063 110.199 123.615 109.42 124.029C108.655 124.426 107.85 124.665 107.006 124.747C106.258 124.82 105.551 124.737 104.884 124.497C104.216 124.24 103.664 123.852 103.227 123.332C102.805 122.795 102.556 122.144 102.481 121.379C102.355 120.09 102.709 119.099 103.541 118.406C104.372 117.698 105.678 117.161 107.459 116.794C108.611 116.569 109.383 116.324 109.775 116.061C110.183 115.796 110.367 115.457 110.326 115.042C110.203 113.784 109.258 113.242 107.491 113.415C106.806 113.481 106.203 113.725 105.681 114.146C105.158 114.551 104.819 115.114 104.665 115.837L102.392 115.528C102.554 114.387 103.089 113.451 103.998 112.719C104.906 111.971 106.037 111.531 107.39 111.399C109.11 111.231 110.403 111.466 111.269 112.105C112.15 112.726 112.646 113.61 112.758 114.757L113.377 121.086C113.454 121.883 113.528 122.47 113.597 122.849C113.681 123.211 113.807 123.52 113.977 123.777L111.612 124.008ZM110.571 117.551C110.415 117.759 110.056 117.955 109.495 118.138C108.949 118.304 108.243 118.485 107.378 118.682C106.639 118.851 106.033 119.143 105.559 119.56C105.1 119.958 104.902 120.484 104.966 121.137C105.025 121.742 105.261 122.185 105.674 122.466C106.086 122.731 106.626 122.831 107.295 122.766C107.9 122.707 108.479 122.538 109.03 122.259C109.58 121.964 110.014 121.552 110.332 121.022C110.664 120.475 110.794 119.828 110.721 119.079L110.571 117.551ZM116.77 112.46C117.167 111.746 117.684 111.197 118.322 110.813C118.959 110.429 119.684 110.197 120.496 110.118C121.293 110.04 122.041 110.136 122.743 110.405C123.459 110.657 124.057 111.104 124.538 111.749C125.017 112.377 125.307 113.201 125.407 114.22L126.223 122.58L123.787 122.818L123.042 115.199C122.929 114.036 122.617 113.231 122.107 112.782C121.597 112.334 120.872 112.155 119.933 112.247C119.391 112.3 118.896 112.501 118.448 112.85C118 113.199 117.654 113.683 117.409 114.302C117.18 114.919 117.105 115.642 117.186 116.47L117.863 123.397L115.427 123.635L114.194 111.023L116.511 110.797L116.675 112.469L116.77 112.46ZM136.333 121.592C136.21 121.492 136.095 121.294 135.985 120.999C135.892 120.703 135.826 120.356 135.787 119.958C135.469 120.648 134.92 121.2 134.14 121.614C133.375 122.01 132.571 122.249 131.727 122.332C130.978 122.405 130.271 122.321 129.604 122.081C128.936 121.825 128.384 121.437 127.947 120.917C127.525 120.379 127.277 119.728 127.202 118.964C127.076 117.674 127.429 116.683 128.262 115.991C129.093 115.283 130.399 114.745 132.179 114.378C133.331 114.153 134.103 113.909 134.495 113.645C134.903 113.38 135.087 113.041 135.047 112.627C134.924 111.369 133.979 110.826 132.211 110.999C131.526 111.066 130.923 111.31 130.402 111.73C129.878 112.135 129.54 112.699 129.385 113.421L127.112 113.113C127.274 111.972 127.81 111.035 128.719 110.303C129.626 109.555 130.757 109.115 132.11 108.983C133.83 108.815 135.123 109.05 135.989 109.689C136.87 110.311 137.366 111.194 137.478 112.341L138.097 118.671C138.175 119.467 138.248 120.055 138.317 120.434C138.401 120.795 138.528 121.105 138.697 121.361L136.333 121.592ZM135.292 115.135C135.135 115.343 134.777 115.539 134.216 115.722C133.669 115.888 132.964 116.07 132.099 116.267C131.36 116.436 130.753 116.728 130.279 117.144C129.82 117.543 129.622 118.068 129.686 118.721C129.745 119.326 129.981 119.769 130.395 120.051C130.806 120.316 131.347 120.416 132.015 120.35C132.621 120.291 133.199 120.122 133.75 119.843C134.3 119.548 134.734 119.136 135.052 118.607C135.385 118.06 135.514 117.412 135.441 116.664L135.292 115.135ZM140.942 103.683L142.631 120.977L140.195 121.215L138.505 103.921L140.942 103.683ZM151.05 120.154C150.684 121.508 150.294 122.543 149.882 123.258C149.471 123.99 149.022 124.492 148.534 124.765C148.048 125.053 147.454 125.232 146.754 125.3C146.085 125.366 145.589 125.39 145.266 125.373L145.056 123.224C145.104 123.219 145.217 123.224 145.395 123.239C145.591 123.268 145.864 123.265 146.214 123.231C146.851 123.169 147.313 122.963 147.6 122.613C147.888 122.264 148.18 121.632 148.476 120.719L148.621 120.223L142.341 108.273L144.968 108.016L149.461 117.223L149.557 117.213L151.967 107.332L154.594 107.075L151.05 120.154ZM163.274 110.037C163.029 109.338 162.618 108.832 162.04 108.518C161.462 108.189 160.814 108.059 160.097 108.129C159.349 108.202 158.767 108.42 158.353 108.782C157.938 109.144 157.759 109.62 157.817 110.209C157.865 110.703 158.099 111.041 158.519 111.225C158.955 111.408 159.594 111.53 160.436 111.593L161.697 111.663C163.058 111.771 164.13 112.052 164.914 112.506C165.712 112.942 166.17 113.765 166.289 114.976C166.411 116.234 166.005 117.254 165.068 118.037C164.148 118.818 162.9 119.286 161.323 119.44C159.763 119.592 158.454 119.358 157.396 118.738C156.337 118.102 155.639 117.206 155.301 116.049L157.476 115.355C157.752 116.212 158.206 116.826 158.837 117.199C159.483 117.554 160.268 117.686 161.191 117.596C162.035 117.513 162.695 117.272 163.17 116.872C163.644 116.456 163.85 115.929 163.788 115.292C163.736 114.767 163.475 114.399 163.004 114.187C162.549 113.975 161.877 113.839 160.987 113.782L159.676 113.693C158.446 113.604 157.44 113.34 156.657 112.902C155.891 112.463 155.45 111.654 155.335 110.476C155.265 109.759 155.41 109.102 155.769 108.504C156.143 107.889 156.689 107.385 157.406 106.994C158.139 106.6 158.984 106.357 159.939 106.264C160.831 106.177 161.667 106.264 162.449 106.525C163.228 106.77 163.876 107.149 164.392 107.661C164.923 108.156 165.275 108.717 165.449 109.343L163.274 110.037ZM169.336 105.635L170.568 118.247L168.132 118.485L166.899 105.873L169.336 105.635ZM168.878 100.953L169.137 103.605L166.701 103.843L166.442 101.191L168.878 100.953ZM179.317 108.47C179.072 107.77 178.661 107.264 178.083 106.95C177.505 106.621 176.857 106.492 176.14 106.562C175.392 106.635 174.81 106.852 174.396 107.214C173.981 107.576 173.802 108.052 173.86 108.641C173.908 109.135 174.142 109.474 174.562 109.658C174.998 109.84 175.637 109.963 176.479 110.025L177.74 110.095C179.101 110.203 180.173 110.484 180.957 110.938C181.755 111.374 182.213 112.198 182.332 113.408C182.454 114.666 182.048 115.686 181.111 116.469C180.191 117.25 178.943 117.718 177.366 117.872C175.806 118.025 174.497 117.791 173.439 117.171C172.38 116.535 171.682 115.638 171.344 114.482L173.519 113.787C173.795 114.644 174.249 115.259 174.88 115.631C175.526 115.986 176.311 116.118 177.234 116.028C178.078 115.946 178.738 115.704 179.213 115.304C179.687 114.888 179.893 114.362 179.83 113.725C179.779 113.199 179.518 112.831 179.047 112.62C178.592 112.407 177.92 112.272 177.03 112.214L175.719 112.125C174.489 112.036 173.483 111.773 172.7 111.335C171.934 110.895 171.493 110.086 171.378 108.908C171.308 108.191 171.453 107.534 171.812 106.936C172.186 106.321 172.732 105.818 173.449 105.426C174.182 105.033 175.027 104.79 175.982 104.696C176.874 104.609 177.71 104.696 178.491 104.957C179.271 105.203 179.919 105.581 180.435 106.094C180.966 106.588 181.318 107.149 181.492 107.775L179.317 108.47Z" fill="#292524"/>
<path opacity="0.6" d="M29.8363 170.267L30.8976 181.128L29.2793 181.287L28.218 170.425L29.8363 170.267ZM33.8614 176.365L34.2945 180.797L32.7564 180.947L32.0042 173.249L33.5132 173.102L33.6264 174.261C34.0658 173.335 34.8103 172.82 35.8236 172.721C37.4054 172.567 38.71 173.492 38.9066 175.504L39.3753 180.3L37.8372 180.45L37.387 175.843C37.2667 174.611 36.5851 174.038 35.5208 174.142C34.4711 174.244 33.7218 174.936 33.8614 176.365ZM44.4221 179.984C42.2207 180.199 40.5865 178.688 40.3565 176.333C40.125 173.964 41.4416 172.15 43.6358 171.936C45.4727 171.756 46.9287 172.799 47.2777 174.413L45.747 174.563C45.5018 173.711 44.8151 173.16 43.7727 173.262C42.446 173.392 41.7554 174.533 41.9164 176.181C42.076 177.814 42.9658 178.786 44.2998 178.656C45.3568 178.553 45.8458 177.909 45.9623 176.992L47.5149 176.841C47.4967 178.461 46.2591 179.804 44.4221 179.984ZM49.0849 179.351L48.3327 171.654L49.8052 171.51L49.927 172.756L49.9562 172.753C50.1585 171.887 50.7071 171.326 51.6839 171.23C51.9172 171.208 52.1234 171.21 52.2488 171.212L52.3891 172.648C52.2703 172.638 51.93 172.619 51.5728 172.654C50.7054 172.739 50.056 173.399 50.1785 174.652L50.623 179.201L49.0849 179.351ZM57.3464 178.721C55.0648 178.944 53.5153 177.395 53.288 175.07C53.0587 172.722 54.3805 170.886 56.4799 170.681C58.6594 170.468 60.2346 171.977 60.4668 174.353L60.5074 174.769L54.8434 175.322C55.0298 176.702 55.8944 177.567 57.2429 177.436C58.2489 177.337 58.8704 176.769 59.0178 176.018L60.4976 175.874C60.3586 177.389 59.0886 178.55 57.3464 178.721ZM54.744 174.155L58.8918 173.749C58.6482 172.537 57.7861 171.848 56.6198 171.962C55.4608 172.076 54.7556 172.917 54.744 174.155ZM64.6237 177.958C63.0929 178.108 61.8788 177.431 61.7285 175.893C61.5568 174.137 62.9922 173.614 64.5417 173.278C65.9679 172.962 66.4504 172.93 66.3956 172.369L66.3892 172.303C66.3165 171.559 65.6879 171.076 64.7111 171.172C63.7271 171.268 63.1084 171.866 63.1192 172.578L61.6103 172.726C61.54 171.253 62.6854 170.097 64.6098 169.908C66.5051 169.723 67.7624 170.616 67.9155 172.183L68.4312 177.461L66.915 177.609L66.8082 176.516L66.779 176.518C66.5188 177.169 65.9503 177.828 64.6237 177.958ZM64.816 176.688C66.1719 176.556 66.7263 175.677 66.6337 174.73L66.5453 173.826C66.3503 174.014 65.546 174.218 64.741 174.414C63.9148 174.62 63.1859 174.993 63.2621 175.773C63.3269 176.436 63.9194 176.776 64.816 176.688ZM73.0341 177.195C71.2701 177.367 69.8455 176.646 69.573 174.987L71.0892 174.839C71.2579 175.661 71.8867 176.071 72.8853 175.973C73.8621 175.878 74.4237 175.374 74.3639 174.762C74.3126 174.237 73.838 173.974 73.1604 173.893L71.857 173.734C70.375 173.555 69.545 172.892 69.4331 171.748C69.2999 170.385 70.3889 169.329 72.153 169.157C73.8879 168.987 75.2211 169.828 75.4166 171.377L73.9441 171.521C73.8562 170.771 73.205 170.283 72.2938 170.372C71.4191 170.457 70.9107 170.978 70.9684 171.568C71.0189 172.086 71.4651 172.359 72.1732 172.452L73.5138 172.615C75.0482 172.803 75.799 173.407 75.908 174.522C76.0511 175.988 74.8274 177.02 73.0341 177.195ZM80.7895 176.43C78.5078 176.653 76.9583 175.104 76.7311 172.779C76.5017 170.432 77.8235 168.595 79.9229 168.39C82.1024 168.177 83.6776 169.686 83.9098 172.063L83.9504 172.478L78.2865 173.032C78.4728 174.412 79.3374 175.277 80.686 175.145C81.6919 175.046 82.3134 174.478 82.4608 173.728L83.9406 173.583C83.8016 175.098 82.5316 176.26 80.7895 176.43ZM78.1871 171.864L82.3348 171.459C82.0912 170.246 81.2291 169.558 80.0628 169.672C78.9038 169.785 78.1986 170.626 78.1871 171.864ZM92.1353 167.373L92.2593 168.642L90.6993 168.794L91.1288 173.19C91.1844 173.758 91.4004 173.936 92.0127 173.876L92.7636 173.803L92.8875 175.071L91.918 175.166C90.4747 175.307 89.7238 174.777 89.6027 173.538L89.1539 168.945L87.7981 169.078L87.6741 167.809L89.03 167.677L88.8248 165.577L90.3702 165.426L90.5754 167.526L92.1353 167.373ZM95.2099 170.37L95.6429 174.802L94.1049 174.952L93.0435 164.091L94.5816 163.94L94.999 168.212C95.4419 167.322 96.1733 166.824 97.172 166.727C98.7538 166.572 100.058 167.497 100.255 169.509L100.724 174.305L99.1856 174.456L98.7355 169.849C98.6151 168.617 97.9335 168.043 96.8692 168.147C95.8195 168.25 95.0702 168.941 95.2099 170.37ZM105.763 173.989C103.482 174.212 101.932 172.664 101.705 170.339C101.476 167.991 102.797 166.155 104.897 165.95C107.076 165.737 108.651 167.246 108.884 169.622L108.924 170.038L103.26 170.591C103.447 171.971 104.311 172.836 105.66 172.704C106.666 172.606 107.287 172.038 107.435 171.287L108.914 171.143C108.775 172.657 107.505 173.819 105.763 173.989ZM103.161 169.424L107.309 169.018C107.065 167.806 106.203 167.117 105.037 167.231C103.878 167.344 103.172 168.186 103.161 169.424ZM115.256 168.411L115.689 172.843L114.151 172.993L113.399 165.295L114.908 165.148L115.021 166.307C115.46 165.381 116.205 164.867 117.218 164.768C118.8 164.613 120.105 165.538 120.301 167.55L120.77 172.346L119.232 172.497L118.782 167.89C118.661 166.658 117.98 166.084 116.915 166.188C115.866 166.291 115.116 166.982 115.256 168.411ZM125.304 172.058C123.722 172.212 122.418 171.288 122.221 169.276L121.753 164.479L123.291 164.329L123.741 168.936C123.861 170.168 124.543 170.741 125.614 170.637C126.657 170.535 127.406 169.843 127.266 168.415L126.833 163.983L128.371 163.832L129.124 171.53L127.615 171.678L127.501 170.519C127.062 171.445 126.325 171.958 125.304 172.058ZM130.859 171.361L130.106 163.663L131.601 163.517L131.727 164.807C132.108 163.813 132.927 163.233 133.882 163.139C134.932 163.037 135.836 163.552 136.237 164.344C136.571 163.473 137.403 162.795 138.54 162.684C139.969 162.545 141.197 163.367 141.378 165.218L141.873 170.284L140.328 170.435L139.845 165.5C139.738 164.4 138.978 164.003 138.147 164.084C137.119 164.185 136.554 164.954 136.65 165.938L137.12 170.749L135.604 170.897L135.112 165.86C135.026 164.978 134.334 164.457 133.46 164.542C132.563 164.63 131.824 165.35 131.943 166.567L132.397 171.21L130.859 171.361ZM147.537 169.885C146.531 169.984 145.629 169.638 145.024 168.792L145.009 168.793L145.124 169.967L143.615 170.114L142.554 159.253L144.092 159.102L144.51 163.381L144.525 163.38C144.937 162.479 145.764 161.978 146.762 161.881C148.752 161.686 150.253 163.181 150.485 165.557C150.718 167.941 149.542 169.689 147.537 169.885ZM147.094 168.589C148.333 168.468 149.094 167.445 148.925 165.71C148.755 163.967 147.81 163.11 146.571 163.232C145.259 163.36 144.517 164.507 144.675 166.125C144.833 167.743 145.782 168.717 147.094 168.589ZM155.521 169.127C153.24 169.35 151.69 167.802 151.463 165.476C151.234 163.129 152.555 161.293 154.655 161.087C156.834 160.874 158.41 162.384 158.642 164.76L158.682 165.176L153.018 165.729C153.205 167.109 154.069 167.974 155.418 167.842C156.424 167.744 157.045 167.175 157.193 166.425L158.673 166.28C158.534 167.795 157.264 168.957 155.521 169.127ZM152.919 164.561L157.067 164.156C156.823 162.943 155.961 162.255 154.795 162.369C153.636 162.482 152.931 163.324 152.919 164.561ZM160.352 168.479L159.6 160.781L161.072 160.637L161.194 161.884L161.223 161.881C161.425 161.015 161.974 160.453 162.951 160.358C163.184 160.335 163.39 160.337 163.516 160.339L163.656 161.775C163.537 161.765 163.197 161.747 162.84 161.782C161.972 161.866 161.323 162.526 161.445 163.78L161.89 168.328L160.352 168.479ZM172.309 167.487C170.108 167.702 168.46 166.207 168.229 163.838C167.996 161.454 169.321 159.654 171.523 159.439C173.724 159.224 175.366 160.734 175.599 163.118C175.83 165.487 174.511 167.272 172.309 167.487ZM172.179 166.16C173.499 166.031 174.205 164.902 174.046 163.27C173.884 161.615 172.964 160.638 171.652 160.766C170.34 160.894 169.627 162.031 169.789 163.686C169.949 165.326 170.86 166.289 172.179 166.16ZM180.316 158.757L180.44 160.025L178.873 160.178L179.501 166.607L177.963 166.758L177.335 160.328L175.957 160.463L175.833 159.195L177.211 159.06L177.089 157.813C176.971 156.603 177.704 155.818 179.089 155.683L180.007 155.593L180.131 156.861L179.453 156.927C178.804 156.991 178.588 157.262 178.652 157.911L178.749 158.91L180.316 158.757ZM185.792 165.993L185.04 158.295L186.534 158.149L186.66 159.439C187.042 158.445 187.861 157.865 188.816 157.771C189.865 157.669 190.769 158.184 191.17 158.976C191.505 158.105 192.336 157.427 193.474 157.316C194.902 157.177 196.131 157.999 196.312 159.85L196.807 164.916L195.261 165.067L194.779 160.132C194.671 159.032 193.911 158.635 193.08 158.716C192.053 158.817 191.488 159.586 191.584 160.57L192.054 165.381L190.538 165.529L190.045 160.492C189.959 159.61 189.268 159.089 188.393 159.174C187.497 159.262 186.758 159.982 186.877 161.199L187.33 165.842L185.792 165.993ZM201.853 164.6C199.572 164.823 198.022 163.274 197.795 160.949C197.566 158.602 198.888 156.765 200.987 156.56C203.166 156.347 204.742 157.856 204.974 160.233L205.014 160.648L199.35 161.202C199.537 162.582 200.401 163.446 201.75 163.315C202.756 163.216 203.377 162.648 203.525 161.898L205.005 161.753C204.866 163.268 203.596 164.43 201.853 164.6ZM199.251 160.034L203.399 159.629C203.155 158.416 202.293 157.728 201.127 157.842C199.968 157.955 199.263 158.796 199.251 160.034ZM207.789 159.369L208.222 163.801L206.684 163.951L205.932 156.253L207.441 156.106L207.554 157.265C207.993 156.339 208.738 155.825 209.751 155.726C211.333 155.571 212.637 156.496 212.834 158.508L213.303 163.304L211.765 163.455L211.314 158.848C211.194 157.616 210.513 157.042 209.448 157.146C208.399 157.249 207.649 157.94 207.789 159.369ZM217.996 155.075L218.12 156.343L216.56 156.495L216.989 160.891C217.045 161.46 217.261 161.637 217.873 161.577L218.624 161.504L218.748 162.772L217.778 162.867C216.335 163.008 215.584 162.478 215.463 161.239L215.014 156.646L213.659 156.779L213.535 155.511L214.89 155.378L214.685 153.279L216.231 153.128L216.436 155.227L217.996 155.075ZM219.965 162.653L219.213 154.956L220.751 154.805L221.503 162.503L219.965 162.653ZM219.849 153.554C219.302 153.608 218.839 153.233 218.788 152.709C218.736 152.176 219.118 151.72 219.664 151.666C220.211 151.613 220.682 151.986 220.734 152.518C220.785 153.043 220.396 153.501 219.849 153.554ZM226.572 162.184C224.371 162.399 222.723 160.905 222.492 158.536C222.259 156.152 223.584 154.352 225.786 154.137C227.987 153.922 229.629 155.432 229.862 157.815C230.093 160.185 228.774 161.969 226.572 162.184ZM226.443 160.858C227.762 160.729 228.468 159.6 228.309 157.967C228.147 156.312 227.228 155.335 225.915 155.463C224.603 155.592 223.89 156.728 224.052 158.383C224.212 160.023 225.123 160.987 226.443 160.858ZM232.704 156.934L233.137 161.366L231.599 161.517L230.847 153.819L232.356 153.671L232.469 154.83C232.909 153.904 233.653 153.39 234.667 153.291C236.248 153.136 237.553 154.061 237.75 156.073L238.218 160.87L236.68 161.02L236.23 156.413C236.11 155.181 235.428 154.607 234.364 154.711C233.314 154.814 232.565 155.505 232.704 156.934ZM242.821 160.604C241.057 160.776 239.632 160.054 239.36 158.396L240.876 158.248C241.045 159.07 241.674 159.48 242.672 159.382C243.649 159.287 244.211 158.783 244.151 158.171C244.1 157.646 243.625 157.383 242.947 157.302L241.644 157.142C240.162 156.963 239.332 156.301 239.22 155.157C239.087 153.794 240.176 152.738 241.94 152.566C243.675 152.396 245.008 153.237 245.204 154.786L243.731 154.929C243.643 154.18 242.992 153.692 242.081 153.781C241.206 153.866 240.698 154.387 240.755 154.977C240.806 155.495 241.252 155.768 241.96 155.86L243.301 156.024C244.835 156.212 245.586 156.816 245.695 157.931C245.838 159.397 244.614 160.429 242.821 160.604ZM254.156 159.489C251.954 159.704 250.307 158.209 250.075 155.84C249.842 153.457 251.168 151.657 253.369 151.441C255.571 151.226 257.212 152.736 257.445 155.12C257.677 157.489 256.357 159.274 254.156 159.489ZM254.026 158.162C255.345 158.033 256.052 156.905 255.892 155.272C255.731 153.617 254.811 152.64 253.499 152.768C252.187 152.896 251.474 154.033 251.635 155.688C251.796 157.328 252.707 158.291 254.026 158.162ZM262.163 150.759L262.287 152.027L260.72 152.18L261.348 158.61L259.81 158.76L259.181 152.331L257.804 152.465L257.68 151.197L259.058 151.062L258.936 149.816C258.817 148.606 259.55 147.82 260.935 147.685L261.854 147.595L261.978 148.863L261.3 148.93C260.651 148.993 260.435 149.264 260.498 149.913L260.596 150.912L262.163 150.759ZM270.597 149.935L270.721 151.203L269.161 151.355L269.59 155.751C269.646 156.32 269.862 156.497 270.474 156.437L271.225 156.364L271.349 157.632L270.38 157.727C268.936 157.868 268.185 157.338 268.064 156.099L267.615 151.506L266.26 151.639L266.136 150.371L267.491 150.238L267.286 148.139L268.832 147.988L269.037 150.087L270.597 149.935ZM273.671 152.931L274.104 157.363L272.566 157.513L271.505 146.652L273.043 146.502L273.461 150.773C273.903 149.884 274.635 149.385 275.633 149.288C277.215 149.133 278.52 150.058 278.717 152.07L279.185 156.867L277.647 157.017L277.197 152.41C277.077 151.178 276.395 150.604 275.331 150.708C274.281 150.811 273.532 151.502 273.671 152.931ZM284.225 156.551C281.943 156.774 280.394 155.225 280.166 152.9C279.937 150.553 281.259 148.716 283.358 148.511C285.538 148.298 287.113 149.807 287.345 152.184L287.386 152.599L281.722 153.153C281.908 154.533 282.773 155.397 284.121 155.266C285.127 155.167 285.749 154.599 285.896 153.849L287.376 153.704C287.237 155.219 285.967 156.38 284.225 156.551ZM281.622 151.985L285.77 151.58C285.527 150.367 284.664 149.679 283.498 149.792C282.339 149.906 281.634 150.747 281.622 151.985ZM33.4598 201.098C31.929 201.248 30.7149 200.572 30.5646 199.034C30.393 197.277 31.8284 196.754 33.3778 196.419C34.8041 196.103 35.2866 196.07 35.2318 195.509L35.2253 195.443C35.1527 194.7 34.5241 194.217 33.5473 194.312C32.5632 194.408 31.9446 195.006 31.9554 195.719L30.4464 195.866C30.3762 194.394 31.5215 193.237 33.446 193.049C35.3412 192.864 36.5986 193.756 36.7517 195.324L37.2674 200.601L35.7512 200.749L35.6443 199.656L35.6152 199.659C35.355 200.31 34.7865 200.969 33.4598 201.098ZM33.6522 199.829C35.008 199.696 35.5624 198.818 35.4698 197.87L35.3815 196.966C35.1865 197.155 34.3822 197.358 33.5772 197.555C32.751 197.76 32.0221 198.133 32.0983 198.913C32.1631 199.577 32.7556 199.916 33.6522 199.829ZM42.6705 203.252C40.7825 203.437 39.4287 202.686 39.0771 201.197L40.6152 201.047C40.8847 201.771 41.6149 202.09 42.548 201.999C43.7872 201.878 44.463 201.112 44.3412 199.866L44.2273 198.7L44.22 198.7C43.7755 199.649 42.9851 200.146 41.9718 200.245C39.9672 200.441 38.4744 198.945 38.245 196.598C38.0149 194.244 39.1974 192.487 41.1874 192.292C42.1861 192.195 43.1007 192.518 43.708 193.386L43.7153 193.385L43.6006 192.211L45.1168 192.063L45.859 199.659C46.087 201.991 44.6095 203.063 42.6705 203.252ZM42.1563 198.895C43.4685 198.766 44.2115 197.634 44.054 196.023C43.8966 194.412 42.9485 193.445 41.6364 193.573C40.3971 193.694 39.6354 194.711 39.8043 196.438C39.9731 198.166 40.9171 199.016 42.1563 198.895ZM50.9086 199.445C48.627 199.668 47.0774 198.119 46.8502 195.794C46.6208 193.447 47.9426 191.61 50.042 191.405C52.2216 191.192 53.7967 192.701 54.0289 195.078L54.0695 195.493L48.4056 196.047C48.592 197.427 49.4565 198.292 50.8051 198.16C51.811 198.062 52.4325 197.493 52.58 196.743L54.0597 196.598C53.9208 198.113 52.6508 199.275 50.9086 199.445ZM48.3062 194.879L52.4539 194.474C52.2103 193.261 51.3483 192.573 50.182 192.687C49.0229 192.8 48.3177 193.642 48.3062 194.879ZM56.844 194.214L57.2771 198.646L55.739 198.796L54.9868 191.099L56.4957 190.951L56.609 192.11C57.0484 191.184 57.7929 190.67 58.8061 190.571C60.3879 190.416 61.6926 191.341 61.8892 193.353L62.3579 198.15L60.8198 198.3L60.3696 193.693C60.2492 192.461 59.5676 191.887 58.5034 191.991C57.4537 192.094 56.7044 192.785 56.844 194.214ZM67.4047 197.833C65.2033 198.048 63.5691 196.537 63.339 194.183C63.1075 191.814 64.4242 190 66.6183 189.785C68.4553 189.606 69.9112 190.648 70.2603 192.263L68.7295 192.412C68.4844 191.561 67.7977 191.009 66.7553 191.111C65.4286 191.241 64.738 192.383 64.899 194.03C65.0585 195.663 65.9484 196.636 67.2824 196.506C68.3393 196.402 68.8284 195.758 68.9449 194.842L70.4975 194.69C70.4793 196.311 69.2417 197.653 67.4047 197.833ZM72.1757 200.266L72.0489 198.969L72.8799 198.888C73.361 198.841 73.6197 198.55 73.7917 197.901L74.0525 196.955L70.3312 189.599L71.9786 189.438L73.9291 193.509C74.1895 194.064 74.4353 194.622 74.6811 195.179C74.8144 194.585 74.9549 193.99 75.1027 193.394L76.2065 189.025L77.8321 188.866L75.2171 198.254C74.896 199.412 74.1949 200.069 73.1525 200.171L72.1757 200.266ZM83.1913 196.114L82.4391 188.416L83.9771 188.266L84.7293 195.963L83.1913 196.114ZM83.0748 187.015C82.5281 187.068 82.0647 186.694 82.0134 186.169C81.9614 185.637 82.3436 185.18 82.8903 185.127C83.437 185.073 83.9077 185.447 83.9597 185.979C84.011 186.504 83.6215 186.961 83.0748 187.015ZM87.5765 191.211L88.0096 195.643L86.4715 195.793L85.7193 188.096L87.2283 187.948L87.3415 189.107C87.7809 188.181 88.5254 187.667 89.5386 187.568C91.1205 187.413 92.4251 188.338 92.6217 190.35L93.0904 195.146L91.5523 195.297L91.1021 190.69C90.9818 189.458 90.3002 188.884 89.2359 188.988C88.1862 189.091 87.4369 189.782 87.5765 191.211ZM98.3826 194.629L97.6304 186.932L99.1685 186.781L99.9207 194.479L98.3826 194.629ZM98.2661 185.53C97.7194 185.584 97.256 185.209 97.2047 184.685C97.1527 184.152 97.5349 183.696 98.0816 183.642C98.6284 183.589 99.099 183.962 99.151 184.494C99.2023 185.019 98.8128 185.477 98.2661 185.53ZM102.768 189.726L103.201 194.158L101.663 194.309L100.911 186.611L102.42 186.464L102.533 187.623C102.972 186.697 103.717 186.182 104.73 186.083C106.312 185.929 107.616 186.854 107.813 188.866L108.282 193.662L106.744 193.812L106.293 189.205C106.173 187.973 105.491 187.4 104.427 187.504C103.378 187.606 102.628 188.298 102.768 189.726ZM112.991 193.356C110.986 193.552 109.494 192.064 109.261 189.681C109.029 187.304 110.212 185.548 112.202 185.353C113.2 185.256 114.108 185.586 114.687 186.391L114.702 186.389L114.284 182.11L115.822 181.96L116.883 192.821L115.374 192.969L115.26 191.795L115.245 191.797C114.815 192.744 113.997 193.258 112.991 193.356ZM113.175 191.999C114.487 191.871 115.229 190.731 115.071 189.113C114.913 187.495 113.963 186.513 112.651 186.641C111.412 186.762 110.651 187.786 110.821 189.528C110.991 191.263 111.936 192.12 113.175 191.999ZM121.418 192.533C119.836 192.687 118.531 191.763 118.335 189.751L117.866 184.954L119.404 184.804L119.854 189.411C119.975 190.643 120.656 191.216 121.728 191.112C122.77 191.01 123.519 190.319 123.38 188.89L122.947 184.458L124.485 184.307L125.237 192.005L123.728 192.153L123.615 190.994C123.176 191.92 122.438 192.433 121.418 192.533ZM129.84 191.739C128.076 191.912 126.651 191.19 126.379 189.531L127.895 189.383C128.064 190.206 128.692 190.615 129.691 190.518C130.668 190.422 131.23 189.918 131.17 189.306C131.118 188.781 130.644 188.518 129.966 188.438L128.663 188.278C127.181 188.099 126.351 187.437 126.239 186.292C126.106 184.929 127.195 183.873 128.959 183.701C130.694 183.531 132.027 184.373 132.222 185.921L130.75 186.065C130.662 185.315 130.011 184.827 129.1 184.916C128.225 185.002 127.717 185.522 127.774 186.113C127.825 186.63 128.271 186.903 128.979 186.996L130.32 187.159C131.854 187.348 132.605 187.952 132.714 189.067C132.857 190.532 131.633 191.564 129.84 191.739ZM137.395 183.046L137.519 184.314L135.959 184.467L136.388 188.862C136.444 189.431 136.66 189.608 137.272 189.549L138.023 189.475L138.147 190.744L137.177 190.838C135.734 190.979 134.983 190.449 134.862 189.21L134.413 184.618L133.057 184.75L132.933 183.482L134.289 183.349L134.084 181.25L135.629 181.099L135.835 183.198L137.395 183.046ZM139.364 190.625L138.612 182.927L140.084 182.783L140.206 184.03L140.235 184.027C140.438 183.161 140.986 182.599 141.963 182.504C142.196 182.481 142.403 182.483 142.528 182.485L142.668 183.921C142.55 183.911 142.209 183.893 141.852 183.928C140.985 184.012 140.335 184.672 140.458 185.926L140.902 190.474L139.364 190.625ZM144.998 193.15L144.871 191.853L145.702 191.772C146.183 191.725 146.442 191.434 146.614 190.785L146.875 189.839L143.153 182.483L144.801 182.322L146.751 186.393C147.012 186.949 147.257 187.506 147.503 188.063C147.636 187.469 147.777 186.874 147.925 186.278L149.029 181.909L150.654 181.75L148.039 191.138C147.718 192.296 147.017 192.953 145.975 193.055L144.998 193.15ZM156.013 188.998L155.261 181.3L156.755 181.154L156.882 182.444C157.263 181.45 158.082 180.87 159.037 180.777C160.086 180.674 160.99 181.189 161.392 181.982C161.726 181.11 162.558 180.433 163.695 180.321C165.123 180.182 166.352 181.004 166.533 182.855L167.028 187.922L165.482 188.073L165 183.138C164.893 182.037 164.133 181.64 163.302 181.721C162.274 181.822 161.709 182.591 161.805 183.575L162.275 188.386L160.759 188.534L160.267 183.497C160.18 182.615 159.489 182.094 158.615 182.179C157.718 182.267 156.979 182.987 157.098 184.204L157.551 188.848L156.013 188.998ZM172.075 187.605C169.793 187.828 168.243 186.279 168.016 183.954C167.787 181.607 169.109 179.77 171.208 179.565C173.388 179.352 174.963 180.861 175.195 183.238L175.236 183.653L169.572 184.207C169.758 185.587 170.623 186.452 171.971 186.32C172.977 186.222 173.599 185.653 173.746 184.903L175.226 184.758C175.087 186.273 173.817 187.435 172.075 187.605ZM169.472 183.039L173.62 182.634C173.376 181.421 172.514 180.733 171.348 180.847C170.189 180.96 169.484 181.802 169.472 183.039ZM179.88 186.82C177.875 187.016 176.383 185.528 176.15 183.145C175.918 180.768 177.1 179.012 179.09 178.817C180.089 178.719 180.997 179.05 181.576 179.855L181.59 179.853L181.172 175.574L182.71 175.424L183.772 186.285L182.263 186.433L182.148 185.259L182.134 185.261C181.704 186.208 180.885 186.722 179.88 186.82ZM180.063 185.463C181.375 185.335 182.118 184.195 181.96 182.577C181.801 180.959 180.852 179.977 179.54 180.105C178.301 180.226 177.54 181.25 177.71 182.992C177.879 184.727 178.824 185.584 180.063 185.463ZM185.507 186.116L184.754 178.418L186.293 178.268L187.045 185.966L185.507 186.116ZM185.39 177.017C184.844 177.07 184.38 176.696 184.329 176.171C184.277 175.639 184.659 175.182 185.206 175.129C185.752 175.075 186.223 175.449 186.275 175.981C186.326 176.506 185.937 176.963 185.39 177.017ZM191.146 185.69C189.615 185.839 188.401 185.163 188.251 183.625C188.079 181.868 189.515 181.345 191.064 181.01C192.491 180.694 192.973 180.662 192.918 180.1L192.912 180.035C192.839 179.291 192.211 178.808 191.234 178.904C190.25 179 189.631 179.597 189.642 180.31L188.133 180.458C188.063 178.985 189.208 177.828 191.132 177.64C193.028 177.455 194.285 178.348 194.438 179.915L194.954 185.193L193.438 185.341L193.331 184.247L193.302 184.25C193.041 184.901 192.473 185.56 191.146 185.69ZM191.339 184.42C192.694 184.287 193.249 183.409 193.156 182.461L193.068 181.558C192.873 181.746 192.069 181.95 191.264 182.146C190.437 182.352 189.709 182.725 189.785 183.505C189.85 184.168 190.442 184.508 191.339 184.42ZM204.168 184.447C203.162 184.545 202.26 184.199 201.655 183.353L201.64 183.354L201.755 184.528L200.246 184.676L199.185 173.814L200.723 173.664L201.141 177.943L201.155 177.941C201.568 177.04 202.395 176.54 203.393 176.442C205.383 176.248 206.883 177.742 207.116 180.119C207.349 182.502 206.173 184.251 204.168 184.447ZM203.725 183.151C204.964 183.03 205.725 182.006 205.556 180.271C205.385 178.529 204.441 177.672 203.202 177.793C201.889 177.921 201.148 179.068 201.306 180.686C201.464 182.305 202.413 183.279 203.725 183.151ZM208.956 186.901L208.829 185.603L209.66 185.522C210.141 185.475 210.4 185.185 210.572 184.535L210.833 183.59L207.111 176.233L208.759 176.072L210.709 180.143C210.97 180.699 211.215 181.256 211.461 181.813C211.595 181.219 211.735 180.624 211.883 180.028L212.987 175.659L214.612 175.5L211.997 184.889C211.676 186.046 210.975 186.703 209.933 186.805L208.956 186.901ZM223.684 182.562C221.286 182.796 219.612 181.407 219.406 179.3L221.003 179.144C221.144 180.588 222.08 181.357 223.523 181.216C224.901 181.081 225.775 180.231 225.66 179.057C225.555 177.978 224.479 177.362 222.984 177.508L222.081 177.597L221.952 176.277L222.855 176.189C224.182 176.059 225.001 175.324 224.903 174.318C224.793 173.196 223.901 172.576 222.654 172.698C221.371 172.824 220.651 173.667 220.775 174.928L219.222 175.079C219.03 173.111 220.365 171.568 222.53 171.356C224.601 171.154 226.263 172.272 226.436 174.043C226.548 175.188 225.862 176.153 224.677 176.607L224.679 176.629C226.129 176.708 227.128 177.663 227.253 178.946C227.439 180.841 225.937 182.342 223.684 182.562ZM232.833 181.668C230.318 181.914 228.538 179.894 228.203 176.468C227.867 173.028 229.222 170.702 231.737 170.457C234.252 170.211 236.024 172.231 236.36 175.671C236.695 179.097 235.347 181.422 232.833 181.668ZM232.698 180.29C234.273 180.136 235.086 178.445 234.83 175.821C234.572 173.182 233.446 171.68 231.872 171.834C230.29 171.989 229.476 173.68 229.734 176.319C229.991 178.943 231.116 180.445 232.698 180.29ZM247.28 180.256C245.874 180.394 244.828 179.414 244.685 177.941L244.663 177.723C244.519 176.25 245.355 175.087 246.762 174.949C248.161 174.813 249.206 175.792 249.35 177.265L249.372 177.483C249.516 178.956 248.68 180.119 247.28 180.256ZM240.223 174.985C238.816 175.122 237.779 174.149 237.635 172.669L237.613 172.451C237.469 170.978 238.298 169.816 239.704 169.678C241.111 169.541 242.149 170.521 242.293 171.993L242.314 172.212C242.459 173.692 241.63 174.847 240.223 174.985ZM239.58 180.832L245.983 169.241L247.361 169.107L240.958 180.697L239.58 180.832ZM247.175 179.177C247.838 179.112 248.202 178.54 248.111 177.607L248.089 177.388C247.998 176.455 247.53 175.956 246.867 176.021C246.196 176.086 245.826 176.667 245.917 177.6L245.938 177.819C246.03 178.752 246.504 179.243 247.175 179.177ZM240.118 173.913C240.782 173.848 241.152 173.268 241.061 172.335L241.039 172.116C240.948 171.183 240.473 170.685 239.809 170.75C239.146 170.814 238.776 171.395 238.867 172.328L238.888 172.547C238.98 173.48 239.455 173.978 240.118 173.913Z" fill="#292524"/>
</g>
<g opacity="0.7" filter="url(#filter1_f_2020_269)">
<path d="M264 69.1128C267.499 77.4087 270.416 86.3381 272.723 95.0143C273.811 99.107 274.706 103.284 275.465 107.449C276.05 110.659 275.831 108.208 276.066 106.185C278.098 88.6607 282.011 70.4636 294.373 57.0392C301.151 49.6786 309.925 42.4826 319 38" stroke="#D9F99D" stroke-width="4" stroke-linecap="round"/>
</g>
<g filter="url(#filter2_dd_2020_269)">
<rect x="66.6309" y="167.197" width="387.828" height="152.084" rx="19.2709" transform="rotate(2.07448 66.6309 167.197)" fill="white" shape-rendering="crispEdges"/>
<rect x="67.2109" y="167.821" width="386.623" height="150.879" rx="18.6687" transform="rotate(2.07448 67.2109 167.821)" stroke="black" stroke-opacity="0.08" stroke-width="1.20443" shape-rendering="crispEdges"/>
<path d="M104.143 206.174C103.849 207.359 103.297 208.487 102.487 209.557C101.697 210.608 100.654 211.457 99.3579 212.104C98.081 212.752 96.5952 213.046 94.9005 212.984C92.9939 212.915 91.3245 212.421 89.8922 211.501C88.4607 210.562 87.3602 209.269 86.5907 207.621C85.8411 205.955 85.5061 204.024 85.5856 201.829C85.6645 199.653 86.1376 197.77 87.005 196.182C87.8917 194.594 89.0826 193.393 90.5776 192.58C92.0733 191.747 93.7745 191.365 95.6811 191.434C97.2025 191.489 98.5401 191.827 99.6939 192.447C100.868 193.049 101.814 193.797 102.534 194.691C103.273 195.585 103.789 196.51 104.082 197.466L100.966 198.047C100.582 196.934 99.9311 196.014 99.0126 195.286C98.0947 194.539 96.9521 194.141 95.5848 194.092C93.6012 194.02 91.9958 194.685 90.7688 196.087C89.5617 197.47 88.9124 199.423 88.821 201.946C88.7282 204.507 89.2334 206.531 90.3366 208.017C91.4405 209.484 92.9939 210.254 94.9967 210.327C96.5952 210.384 97.8929 209.959 98.89 209.05C99.8871 208.141 100.585 206.981 100.983 205.568L104.143 206.174ZM108.938 200.071L109.053 200.075C109.486 199.32 110.106 198.706 110.913 198.234C111.721 197.762 112.645 197.544 113.685 197.582C114.166 197.6 114.617 197.664 115.037 197.776L114.935 200.607C114.398 200.51 113.899 200.453 113.437 200.437C112.108 200.389 111.035 200.726 110.219 201.448C109.402 202.151 108.965 203.312 108.906 204.93L108.613 213.018L105.667 212.911L106.219 197.659L109.022 197.76L108.938 200.071ZM129.674 209.326C129.203 210.64 128.391 211.748 127.24 212.651C126.09 213.535 124.494 213.94 122.452 213.866C121.046 213.816 119.806 213.443 118.732 212.748C117.678 212.035 116.874 211.071 116.321 209.855C115.768 208.62 115.519 207.223 115.576 205.663C115.633 204.084 115.973 202.698 116.594 201.506C117.235 200.314 118.097 199.41 119.18 198.794C120.283 198.159 121.557 197.867 123.001 197.92C124.407 197.97 125.637 198.333 126.693 199.008C127.768 199.664 128.583 200.59 129.138 201.786C129.712 202.964 129.97 204.352 129.912 205.951C129.898 206.355 129.877 206.663 129.85 206.874L118.526 206.464C118.513 207.891 118.866 209.07 119.584 210.002C120.322 210.935 121.307 211.424 122.539 211.469C123.714 211.511 124.629 211.275 125.284 210.758C125.94 210.223 126.415 209.594 126.712 208.872L129.674 209.326ZM122.914 200.317C121.72 200.274 120.752 200.634 120.011 201.398C119.29 202.143 118.842 203.082 118.666 204.213L126.956 204.513C126.863 203.353 126.475 202.375 125.79 201.578C125.105 200.782 124.147 200.362 122.914 200.317ZM141.497 214.209C141.367 214.07 141.261 213.815 141.178 213.446C141.114 213.077 141.091 212.652 141.108 212.17C140.618 212.943 139.874 213.514 138.877 213.883C137.9 214.233 136.901 214.39 135.881 214.353C134.975 214.32 134.144 214.107 133.387 213.713C132.631 213.3 132.034 212.748 131.596 212.057C131.178 211.348 130.986 210.531 131.02 209.607C131.076 208.047 131.657 206.92 132.762 206.228C133.867 205.516 135.513 205.083 137.697 204.931C139.108 204.847 140.068 204.68 140.579 204.428C141.109 204.177 141.383 203.802 141.401 203.301C141.456 201.779 140.415 200.98 138.277 200.903C137.449 200.873 136.69 201.067 136 201.485C135.31 201.885 134.815 202.503 134.515 203.341L131.852 202.608C132.228 201.272 133.017 200.24 134.22 199.512C135.423 198.765 136.843 198.421 138.48 198.48C140.56 198.556 142.066 199.044 142.997 199.946C143.949 200.828 144.4 201.963 144.349 203.35L144.072 211.005C144.037 211.968 144.031 212.681 144.052 213.145C144.094 213.59 144.196 213.979 144.357 214.313L141.497 214.209ZM141.291 206.334C141.071 206.557 140.611 206.734 139.912 206.863C139.233 206.973 138.362 207.076 137.298 207.173C136.388 207.256 135.618 207.507 134.985 207.928C134.373 208.33 134.052 208.926 134.024 209.715C133.997 210.447 134.208 211.014 134.656 211.416C135.105 211.799 135.734 212.005 136.543 212.034C137.275 212.06 137.992 211.951 138.695 211.707C139.399 211.443 139.983 211.021 140.448 210.44C140.932 209.84 141.191 209.088 141.224 208.183L141.291 206.334ZM153.858 212.112L153.766 214.654C153.341 214.677 152.618 214.67 151.597 214.633C150.172 214.581 149.16 214.313 148.56 213.829C147.98 213.345 147.713 212.448 147.761 211.139L148.113 201.404L145.6 201.313L145.681 199.088L148.194 199.179L148.35 194.875L151.296 194.982L151.141 199.286L154.492 199.407L154.411 201.632L151.06 201.51L150.736 210.465C150.711 211.139 150.821 211.577 151.064 211.779C151.307 211.981 151.757 212.093 152.411 212.117L153.858 212.112ZM159.03 199.572L158.477 214.824L155.531 214.718L156.083 199.465L159.03 199.572ZM159.235 193.91L159.119 197.116L156.172 197.01L156.288 193.803L159.235 193.91ZM164.226 201.785C164.814 200.996 165.52 200.424 166.342 200.068C167.165 199.712 168.068 199.552 169.05 199.588C170.013 199.622 170.891 199.857 171.685 200.29C172.5 200.706 173.142 201.336 173.613 202.183C174.084 203.01 174.298 204.039 174.253 205.272L173.887 215.382L170.94 215.276L171.274 206.061C171.325 204.655 171.082 203.643 170.545 203.026C170.008 202.409 169.172 202.08 168.035 202.038C167.381 202.015 166.758 202.175 166.167 202.52C165.576 202.865 165.084 203.387 164.693 204.087C164.32 204.787 164.116 205.637 164.08 206.639L163.776 215.016L160.83 214.909L161.382 199.657L164.184 199.758L164.111 201.781L164.226 201.785ZM189.936 214.894C189.852 217.205 189.136 218.876 187.787 219.907C186.438 220.957 184.694 221.443 182.557 221.366C180.843 221.304 179.384 220.856 178.18 220.021C176.995 219.188 176.201 217.944 175.798 216.291L178.651 215.786C178.901 216.875 179.355 217.663 180.012 218.15C180.689 218.637 181.566 218.9 182.645 218.939C185.437 219.04 186.887 217.608 186.994 214.642L187.05 213.111L186.934 213.107C186.489 213.689 185.875 214.139 185.092 214.458C184.309 214.777 183.417 214.918 182.415 214.881C181.106 214.834 179.942 214.483 178.925 213.829C177.926 213.176 177.158 212.281 176.621 211.143C176.084 210.005 175.842 208.704 175.895 207.24C175.947 205.796 176.282 204.526 176.901 203.43C177.519 202.314 178.35 201.467 179.393 200.888C180.456 200.309 181.642 200.044 182.951 200.091C183.991 200.129 184.909 200.355 185.703 200.769C186.499 201.165 187.087 201.697 187.468 202.366L187.583 202.37L187.647 200.608L190.449 200.71L189.936 214.894ZM182.991 212.559C184.282 212.606 185.329 212.181 186.133 211.285C186.936 210.388 187.366 209.179 187.421 207.658C187.475 206.156 187.134 204.938 186.396 204.005C185.659 203.053 184.646 202.553 183.355 202.507C182.065 202.46 181.008 202.884 180.185 203.78C179.382 204.657 178.953 205.847 178.899 207.349C178.845 208.851 179.186 210.088 179.922 211.06C180.678 212.013 181.701 212.513 182.991 212.559ZM207.461 216.599C207.331 216.459 207.225 216.204 207.142 215.835C207.078 215.466 207.055 215.041 207.072 214.56C206.581 215.333 205.838 215.903 204.841 216.272C203.864 216.623 202.865 216.779 201.844 216.742C200.939 216.709 200.108 216.496 199.351 216.102C198.595 215.689 197.998 215.137 197.56 214.447C197.142 213.737 196.95 212.92 196.983 211.996C197.04 210.436 197.621 209.31 198.726 208.617C199.831 207.905 201.476 207.473 203.661 207.321C205.072 207.237 206.032 207.069 206.543 206.817C207.072 206.567 207.346 206.191 207.365 205.69C207.42 204.169 206.378 203.369 204.241 203.292C203.413 203.262 202.654 203.456 201.963 203.875C201.274 204.274 200.779 204.892 200.479 205.73L197.815 204.997C198.192 203.661 198.981 202.629 200.184 201.901C201.387 201.154 202.807 200.81 204.444 200.87C206.524 200.945 208.03 201.433 208.961 202.335C209.913 203.218 210.363 204.353 210.313 205.739L210.036 213.394C210.001 214.357 209.994 215.071 210.016 215.534C210.058 215.979 210.16 216.369 210.321 216.702L207.461 216.599ZM207.255 208.723C207.034 208.947 206.575 209.123 205.876 209.252C205.197 209.362 204.326 209.466 203.262 209.562C202.352 209.645 201.581 209.897 200.949 210.317C200.337 210.719 200.016 211.315 199.988 212.105C199.961 212.837 200.172 213.403 200.62 213.805C201.069 214.188 201.698 214.394 202.507 214.423C203.239 214.45 203.956 214.341 204.659 214.096C205.363 213.833 205.947 213.41 206.412 212.829C206.896 212.23 207.155 211.477 207.188 210.572L207.255 208.723ZM227.091 206.607C226.911 205.733 226.501 205.062 225.862 204.596C225.224 204.11 224.472 203.851 223.605 203.82C222.7 203.787 221.971 203.953 221.418 204.319C220.865 204.685 220.575 205.224 220.549 205.936C220.528 206.533 220.753 206.975 221.224 207.263C221.715 207.55 222.458 207.799 223.453 208.009L224.947 208.294C226.554 208.642 227.79 209.149 228.652 209.817C229.535 210.466 229.95 211.522 229.897 212.986C229.842 214.507 229.193 215.66 227.95 216.444C226.726 217.229 225.16 217.587 223.254 217.518C221.366 217.449 219.841 216.96 218.679 216.05C217.517 215.121 216.827 213.939 216.609 212.504L219.316 212.024C219.509 213.092 219.952 213.898 220.646 214.444C221.36 214.971 222.275 215.255 223.392 215.296C224.413 215.332 225.239 215.15 225.87 214.749C226.503 214.328 226.833 213.733 226.861 212.962C226.884 212.327 226.631 211.845 226.103 211.518C225.594 211.191 224.814 210.921 223.761 210.71L222.21 210.393C220.756 210.09 219.596 209.614 218.733 208.966C217.889 208.318 217.492 207.282 217.544 205.856C217.575 204.99 217.854 204.229 218.379 203.573C218.924 202.898 219.656 202.385 220.575 202.032C221.513 201.681 222.56 201.526 223.716 201.568C224.794 201.607 225.779 201.845 226.669 202.282C227.56 202.7 228.273 203.256 228.807 203.95C229.361 204.626 229.692 205.352 229.798 206.127L227.091 206.607ZM238.857 215.19L238.765 217.732C238.34 217.756 237.617 217.749 236.596 217.712C235.171 217.66 234.159 217.392 233.559 216.908C232.979 216.424 232.712 215.527 232.76 214.217L233.113 204.482L230.599 204.391L230.68 202.167L233.193 202.258L233.349 197.954L236.296 198.061L236.14 202.365L239.491 202.486L239.41 204.711L236.059 204.589L235.735 213.544C235.71 214.218 235.82 214.656 236.063 214.858C236.307 215.059 236.756 215.172 237.41 215.196L238.857 215.19ZM243.743 204.954L243.858 204.958C244.291 204.203 244.911 203.589 245.719 203.117C246.526 202.645 247.45 202.427 248.49 202.465C248.972 202.483 249.422 202.547 249.843 202.659L249.74 205.49C249.204 205.393 248.704 205.336 248.242 205.32C246.913 205.272 245.84 205.609 245.024 206.331C244.208 207.034 243.77 208.195 243.712 209.813L243.419 217.901L240.472 217.794L241.025 202.542L243.827 202.643L243.743 204.954ZM260.339 218.514C260.209 218.374 260.102 218.12 260.019 217.75C259.956 217.382 259.932 216.957 259.95 216.475C259.459 217.248 258.715 217.819 257.718 218.188C256.741 218.538 255.743 218.695 254.722 218.658C253.817 218.625 252.986 218.412 252.229 218.018C251.472 217.605 250.875 217.053 250.437 216.362C250.02 215.653 249.827 214.836 249.861 213.911C249.917 212.351 250.498 211.225 251.603 210.532C252.709 209.82 254.354 209.388 256.538 209.236C257.949 209.152 258.91 208.984 259.42 208.733C259.95 208.482 260.224 208.106 260.242 207.606C260.297 206.084 259.256 205.285 257.118 205.207C256.29 205.177 255.531 205.372 254.841 205.79C254.152 206.189 253.657 206.808 253.356 207.645L250.693 206.913C251.069 205.576 251.859 204.544 253.061 203.817C254.265 203.07 255.685 202.726 257.322 202.785C259.402 202.86 260.907 203.349 261.839 204.25C262.79 205.133 263.241 206.268 263.191 207.655L262.913 215.31C262.879 216.273 262.872 216.986 262.894 217.449C262.936 217.895 263.037 218.284 263.199 218.618L260.339 218.514ZM260.132 210.639C259.912 210.862 259.453 211.038 258.754 211.167C258.075 211.278 257.203 211.381 256.139 211.478C255.23 211.56 254.459 211.812 253.827 212.233C253.214 212.635 252.894 213.231 252.865 214.02C252.839 214.752 253.05 215.319 253.498 215.721C253.947 216.103 254.576 216.309 255.385 216.339C256.116 216.365 256.834 216.256 257.537 216.012C258.241 215.748 258.825 215.326 259.289 214.745C259.774 214.145 260.033 213.393 260.065 212.488L260.132 210.639ZM272.699 216.416L272.607 218.958C272.182 218.982 271.459 218.975 270.438 218.938C269.013 218.886 268.001 218.618 267.402 218.133C266.821 217.65 266.555 216.753 266.602 215.443L266.955 205.708L264.442 205.617L264.522 203.393L267.035 203.484L267.191 199.18L270.138 199.286L269.982 203.591L273.333 203.712L273.252 205.936L269.901 205.815L269.577 214.77C269.553 215.444 269.662 215.882 269.905 216.084C270.149 216.285 270.598 216.398 271.253 216.422L272.699 216.416ZM287.887 215.057C287.416 216.371 286.604 217.479 285.453 218.382C284.303 219.266 282.707 219.671 280.665 219.597C279.259 219.546 278.019 219.174 276.945 218.479C275.891 217.766 275.087 216.802 274.534 215.586C273.981 214.351 273.732 212.954 273.789 211.394C273.846 209.815 274.186 208.429 274.807 207.236C275.448 206.045 276.31 205.141 277.393 204.524C278.496 203.889 279.77 203.598 281.214 203.65C282.62 203.701 283.85 204.064 284.906 204.739C285.981 205.395 286.796 206.321 287.351 207.517C287.925 208.695 288.183 210.083 288.125 211.682C288.111 212.086 288.09 212.394 288.063 212.605L276.739 212.195C276.726 213.621 277.079 214.801 277.797 215.733C278.534 216.666 279.52 217.155 280.752 217.2C281.927 217.242 282.842 217.005 283.497 216.489C284.153 215.954 284.628 215.325 284.925 214.603L287.887 215.057ZM281.127 206.048C279.933 206.005 278.965 206.365 278.224 207.129C277.503 207.874 277.055 208.812 276.879 209.944L285.169 210.244C285.076 209.084 284.688 208.105 284.003 207.309C283.318 206.513 282.36 206.093 281.127 206.048ZM303.533 219.008C303.45 221.319 302.733 222.99 301.385 224.021C300.035 225.072 298.292 225.558 296.154 225.481C294.44 225.419 292.981 224.97 291.777 224.136C290.593 223.303 289.799 222.059 289.396 220.405L292.249 219.901C292.499 220.99 292.952 221.778 293.61 222.265C294.286 222.752 295.164 223.015 296.242 223.054C299.035 223.155 300.485 221.723 300.592 218.757L300.647 217.226L300.532 217.222C300.087 217.804 299.473 218.254 298.69 218.573C297.907 218.891 297.015 219.033 296.013 218.996C294.704 218.949 293.54 218.598 292.522 217.944C291.524 217.291 290.756 216.395 290.219 215.257C289.682 214.12 289.439 212.819 289.492 211.355C289.545 209.911 289.88 208.641 290.498 207.545C291.117 206.429 291.948 205.582 292.991 205.003C294.053 204.424 295.239 204.158 296.549 204.206C297.589 204.244 298.506 204.47 299.301 204.884C300.097 205.279 300.685 205.812 301.066 206.481L301.181 206.485L301.245 204.723L304.047 204.825L303.533 219.008ZM296.589 216.674C297.879 216.721 298.926 216.296 299.73 215.4C300.534 214.503 300.963 213.294 301.019 211.773C301.073 210.271 300.731 209.053 299.994 208.12C299.257 207.168 298.243 206.668 296.953 206.621C295.663 206.575 294.606 206.999 293.783 207.895C292.98 208.772 292.551 209.962 292.497 211.464C292.442 212.966 292.783 214.203 293.519 215.175C294.275 216.128 295.299 216.627 296.589 216.674ZM313.478 220.439C312.824 221.996 312.193 223.169 311.586 223.957C310.978 224.764 310.361 225.291 309.735 225.539C309.109 225.805 308.372 225.923 307.524 225.892C306.715 225.863 306.119 225.813 305.736 225.741L305.83 223.141C305.888 223.143 306.022 223.167 306.233 223.213C306.462 223.28 306.788 223.32 307.212 223.336C307.982 223.364 308.567 223.192 308.966 222.821C309.365 222.45 309.815 221.743 310.316 220.7L310.568 220.131L304.989 204.859L308.166 204.974L312.052 216.685L312.167 216.689L316.63 205.28L319.808 205.395L313.478 220.439Z" fill="#292524"/>
<path opacity="0.6" d="M85.8339 271.774L82.7482 258.509L84.7846 258.583L86.4384 266.296C86.6708 267.435 86.8853 268.581 87.0733 269.727C87.3525 268.598 87.6494 267.47 87.9812 266.352L90.2504 258.781L92.3926 258.859L94.0905 266.573C94.332 267.703 94.5559 268.832 94.7534 269.961C95.0232 268.849 95.3194 267.739 95.6332 266.629L97.8407 259.056L99.886 259.13L95.831 272.136L93.5918 272.055L91.7228 263.945C91.5406 263.127 91.3774 262.273 91.216 261.367C90.9983 262.26 90.7825 263.099 90.5327 263.902L88.0996 271.856L85.8339 271.774ZM103.599 272.629C100.839 272.529 99.2383 270.432 99.3401 267.62C99.443 264.781 101.315 262.801 103.854 262.893C106.49 262.988 108.128 265.043 108.024 267.917L108.006 268.419L101.156 268.171C101.157 269.848 102.051 271.019 103.681 271.078C104.898 271.123 105.731 270.544 106.028 269.672L107.817 269.736C107.408 271.522 105.706 272.705 103.599 272.629ZM101.225 266.761L106.241 266.943C106.145 265.456 105.226 264.496 103.816 264.445C102.414 264.394 101.437 265.286 101.225 266.761ZM116.604 273.038C114.753 272.971 113.412 271.969 113.48 270.109C113.557 267.985 115.354 267.591 117.257 267.439C119.01 267.291 119.592 267.329 119.616 266.651L119.619 266.571C119.652 265.672 118.979 264.994 117.798 264.952C116.607 264.909 115.773 265.523 115.672 266.375L113.847 266.309C113.999 264.54 115.552 263.343 117.879 263.427C120.171 263.511 121.529 264.778 121.46 266.673L121.229 273.056L119.396 272.989L119.443 271.667L119.408 271.666C118.993 272.401 118.209 273.097 116.604 273.038ZM117.038 271.553C118.677 271.613 119.48 270.653 119.522 269.507L119.561 268.414C119.298 268.608 118.305 268.722 117.313 268.827C116.294 268.94 115.364 269.268 115.33 270.212C115.301 271.014 115.953 271.514 117.038 271.553ZM123.327 273.132L123.665 263.822L125.445 263.887L125.391 265.394L125.426 265.396C125.807 264.394 126.551 263.812 127.733 263.855C128.015 263.865 128.261 263.901 128.41 263.924L128.347 265.66C128.207 265.629 127.804 265.552 127.372 265.537C126.323 265.499 125.442 266.182 125.387 267.698L125.187 273.199L123.327 273.132ZM133.29 273.705C130.531 273.605 128.93 271.508 129.032 268.695C129.134 265.857 131.007 263.877 133.546 263.968C136.182 264.064 137.82 266.118 137.716 268.992L137.698 269.495L130.848 269.247C130.849 270.924 131.742 272.095 133.373 272.154C134.59 272.198 135.423 271.619 135.719 270.747L137.509 270.812C137.1 272.598 135.397 273.781 133.29 273.705ZM130.916 267.837L135.933 268.018C135.836 266.532 134.918 265.572 133.507 265.521C132.106 265.47 131.129 266.361 130.916 267.837ZM145.508 273.935L142.962 264.521L144.91 264.592L145.839 268.439C146.107 269.579 146.346 270.779 146.595 271.944C146.937 270.8 147.279 269.621 147.629 268.504L148.851 264.735L150.623 264.799L151.552 268.646C151.829 269.768 152.068 270.969 152.327 272.117C152.659 270.99 152.984 269.819 153.333 268.71L154.546 264.941L156.512 265.012L153.292 274.217L151.353 274.147L150.318 270.049C150.088 269.096 149.877 268.091 149.657 267.103C149.366 268.072 149.074 269.059 148.767 269.993L147.421 274.005L145.508 273.935ZM161.139 274.713C158.477 274.617 156.75 272.568 156.854 269.703C156.959 266.82 158.829 264.884 161.492 264.981C164.154 265.077 165.871 267.143 165.767 270.026C165.663 272.891 163.802 274.81 161.139 274.713ZM161.197 273.109C162.793 273.167 163.818 271.933 163.889 269.958C163.962 267.957 163.02 266.643 161.434 266.585C159.847 266.528 158.813 267.77 158.741 269.771C158.669 271.755 159.602 273.051 161.197 273.109ZM167.247 274.723L167.585 265.413L169.365 265.478L169.311 266.985L169.346 266.987C169.727 265.985 170.472 265.403 171.653 265.446C171.935 265.456 172.181 265.492 172.33 265.515L172.267 267.251C172.127 267.22 171.724 267.143 171.292 267.128C170.243 267.09 169.362 267.773 169.307 269.289L169.108 274.79L167.247 274.723ZM173.26 274.941L173.736 261.805L175.596 261.872L175.313 269.674L175.34 269.675L179.451 265.843L181.76 265.927L177.675 269.786L181.688 275.246L179.404 275.163L176.215 270.855L175.238 271.737L175.12 275.008L173.26 274.941ZM182.675 275.282L183.012 265.972L184.872 266.04L184.535 275.349L182.675 275.282ZM183.996 264.401C183.335 264.377 182.842 263.856 182.865 263.221C182.888 262.578 183.417 262.094 184.079 262.118C184.74 262.142 185.242 262.663 185.218 263.307C185.195 263.941 184.657 264.425 183.996 264.401ZM188.696 270.133L188.502 275.493L186.642 275.425L186.979 266.116L188.804 266.182L188.753 267.584C189.426 266.549 190.398 266.054 191.623 266.099C193.536 266.168 194.945 267.481 194.857 269.914L194.647 275.715L192.787 275.648L192.988 270.076C193.042 268.586 192.321 267.792 191.034 267.746C189.764 267.7 188.759 268.405 188.696 270.133ZM200.671 279.747C198.388 279.664 196.892 278.551 196.711 276.717L198.572 276.784C198.777 277.692 199.598 278.19 200.726 278.231C202.225 278.285 203.154 277.48 203.209 275.972L203.26 274.562L203.251 274.562C202.568 275.623 201.545 276.089 200.32 276.044C197.895 275.956 196.353 273.932 196.456 271.093C196.559 268.246 198.253 266.339 200.659 266.426C201.867 266.47 202.907 267.002 203.493 268.135L203.501 268.136L203.553 266.716L205.387 266.783L205.054 275.969C204.952 278.79 203.016 279.832 200.671 279.747ZM200.757 274.462C202.343 274.52 203.412 273.287 203.483 271.339C203.553 269.391 202.576 268.084 200.99 268.027C199.491 267.973 198.419 269.064 198.343 271.153C198.267 273.242 199.258 274.408 200.757 274.462ZM215.444 276.68C212.782 276.584 211.055 274.535 211.159 271.67C211.264 268.787 213.134 266.851 215.797 266.948C218.459 267.044 220.176 269.11 220.072 271.993C219.968 274.858 218.107 276.777 215.444 276.68ZM215.502 275.076C217.098 275.134 218.123 273.9 218.194 271.925C218.267 269.924 217.326 268.61 215.739 268.552C214.152 268.495 213.118 269.737 213.046 271.738C212.974 273.722 213.907 275.018 215.502 275.076ZM223.607 271.397L223.413 276.757L221.552 276.69L221.89 267.38L223.715 267.446L223.664 268.848C224.337 267.813 225.308 267.319 226.533 267.363C228.446 267.432 229.855 268.746 229.767 271.179L229.557 276.98L227.697 276.912L227.899 271.341C227.953 269.851 227.231 269.057 225.944 269.01C224.675 268.964 223.669 269.669 223.607 271.397ZM238.791 277.464C236.939 277.397 235.599 276.395 235.666 274.535C235.743 272.411 237.54 272.017 239.444 271.865C241.197 271.717 241.778 271.755 241.803 271.076L241.805 270.997C241.838 270.098 241.165 269.42 239.984 269.378C238.794 269.334 237.959 269.949 237.858 270.801L236.033 270.735C236.185 268.966 237.738 267.769 240.066 267.853C242.358 267.936 243.715 269.204 243.647 271.099L243.416 277.482L241.582 277.415L241.63 276.093L241.594 276.092C241.179 276.827 240.395 277.522 238.791 277.464ZM239.224 275.979C240.864 276.039 241.666 275.079 241.708 273.933L241.748 272.84C241.485 273.033 240.492 273.148 239.499 273.253C238.48 273.366 237.55 273.694 237.516 274.637C237.487 275.44 238.14 275.94 239.224 275.979ZM249.816 277.714L250.153 268.404L251.96 268.47L251.904 270.03C252.518 268.905 253.589 268.343 254.744 268.385C256.013 268.431 257.01 269.191 257.362 270.201C257.9 269.214 259.002 268.539 260.377 268.589C262.105 268.652 263.439 269.83 263.358 272.069L263.136 278.196L261.267 278.128L261.484 272.16C261.532 270.829 260.688 270.233 259.683 270.197C258.44 270.152 257.642 270.979 257.599 272.169L257.388 277.988L255.555 277.921L255.775 271.83C255.814 270.763 255.073 270.03 254.015 269.992C252.93 269.952 251.933 270.693 251.879 272.165L251.676 277.781L249.816 277.714ZM268.077 278.525C266.225 278.458 264.884 277.456 264.952 275.596C265.029 273.471 266.826 273.077 268.73 272.926C270.483 272.777 271.064 272.816 271.089 272.137L271.091 272.058C271.124 271.159 270.451 270.481 269.27 270.438C268.08 270.395 267.245 271.009 267.144 271.862L265.319 271.796C265.471 270.027 267.024 268.83 269.352 268.914C271.644 268.997 273.001 270.265 272.933 272.16L272.701 278.543L270.868 278.476L270.916 277.154L270.88 277.152C270.465 277.888 269.681 278.583 268.077 278.525ZM268.51 277.04C270.15 277.1 270.952 276.14 270.994 274.994L271.033 273.901C270.77 274.094 269.778 274.208 268.785 274.314C267.766 274.427 266.836 274.755 266.802 275.698C266.773 276.501 267.426 277.001 268.51 277.04ZM274.8 278.619L275.137 269.309L276.918 269.374L276.863 270.881L276.898 270.882C277.279 269.881 278.024 269.299 279.205 269.342C279.487 269.352 279.733 269.387 279.882 269.41L279.819 271.147C279.679 271.116 279.276 271.039 278.844 271.023C277.795 270.985 276.914 271.669 276.859 273.185L276.66 278.686L274.8 278.619ZM280.812 278.836L281.288 265.701L283.148 265.768L282.865 273.57L282.892 273.571L287.003 269.739L289.313 269.823L285.227 273.682L289.24 279.142L286.957 279.059L283.767 274.75L282.791 275.633L282.672 278.904L280.812 278.836ZM293.79 279.518C291.031 279.418 289.429 277.321 289.531 274.509C289.634 271.67 291.507 269.69 294.045 269.782C296.681 269.878 298.319 271.932 298.215 274.806L298.197 275.308L291.347 275.06C291.348 276.737 292.242 277.909 293.873 277.968C295.089 278.012 295.922 277.433 296.219 276.561L298.008 276.626C297.599 278.412 295.897 279.595 293.79 279.518ZM291.416 273.65L296.432 273.832C296.336 272.346 295.417 271.385 294.007 271.334C292.605 271.284 291.628 272.175 291.416 273.65ZM304.484 270.372L304.429 271.906L302.542 271.838L302.35 277.154C302.325 277.841 302.554 278.088 303.295 278.115L304.203 278.148L304.147 279.682L302.975 279.639C301.229 279.576 300.418 278.823 300.472 277.324L300.673 271.77L299.034 271.711L299.089 270.177L300.729 270.236L300.821 267.697L302.69 267.765L302.598 270.304L304.484 270.372ZM305.619 279.735L305.957 270.425L307.817 270.493L307.48 279.802L305.619 279.735ZM306.94 268.855C306.279 268.831 305.786 268.31 305.809 267.675C305.832 267.031 306.362 266.547 307.023 266.571C307.684 266.595 308.186 267.117 308.163 267.76C308.14 268.395 307.602 268.878 306.94 268.855ZM311.641 274.586L311.447 279.946L309.587 279.879L309.924 270.569L311.749 270.635L311.698 272.037C312.371 271.002 313.342 270.508 314.568 270.552C316.481 270.621 317.89 271.935 317.801 274.368L317.591 280.169L315.731 280.101L315.933 274.53C315.987 273.04 315.265 272.246 313.978 272.199C312.709 272.153 311.703 272.858 311.641 274.586ZM323.616 284.2C321.332 284.117 319.837 283.004 319.656 281.17L321.516 281.238C321.721 282.145 322.542 282.643 323.67 282.684C325.169 282.738 326.099 281.933 326.153 280.426L326.204 279.015L326.196 279.015C325.513 280.076 324.49 280.542 323.264 280.498C320.84 280.41 319.298 278.385 319.401 275.547C319.504 272.699 321.197 270.792 323.604 270.879C324.811 270.923 325.851 271.455 326.437 272.589L326.446 272.589L326.497 271.169L328.331 271.236L327.998 280.422C327.896 283.243 325.96 284.285 323.616 284.2ZM323.701 278.916C325.288 278.973 326.356 277.741 326.427 275.792C326.498 273.844 325.521 272.538 323.934 272.48C322.435 272.426 321.363 273.517 321.287 275.606C321.212 277.696 322.202 278.861 323.701 278.916ZM334.261 284.462L334.731 271.468L336.556 271.534L336.508 272.874L336.534 272.875C337.162 271.874 338.264 271.41 339.472 271.454C341.879 271.541 343.43 273.566 343.326 276.44C343.221 279.323 341.537 281.221 339.113 281.133C337.896 281.089 336.919 280.533 336.331 279.444L336.305 279.443L336.121 284.53L334.261 284.462ZM338.792 279.515C340.29 279.57 341.363 278.47 341.439 276.372C341.515 274.265 340.525 273.09 339.026 273.036C337.44 272.978 336.37 274.228 336.299 276.185C336.228 278.142 337.205 279.458 338.792 279.515ZM347.133 268.086L346.657 281.221L344.797 281.154L345.272 268.019L347.133 268.086ZM351.597 281.55C349.746 281.483 348.405 280.481 348.472 278.621C348.549 276.497 350.347 276.103 352.25 275.951C354.003 275.803 354.584 275.841 354.609 275.163L354.612 275.083C354.644 274.184 353.972 273.506 352.79 273.464C351.6 273.421 350.766 274.035 350.664 274.887L348.839 274.821C348.992 273.052 350.545 271.855 352.872 271.939C355.164 272.022 356.522 273.29 356.453 275.185L356.222 281.568L354.388 281.501L354.436 280.179L354.401 280.178C353.986 280.913 353.201 281.608 351.597 281.55ZM352.03 280.065C353.67 280.125 354.473 279.165 354.514 278.019L354.554 276.926C354.291 277.12 353.298 277.234 352.306 277.339C351.286 277.452 350.356 277.78 350.322 278.724C350.293 279.526 350.946 280.026 352.03 280.065ZM360.374 276.351L360.18 281.711L358.32 281.644L358.657 272.334L360.482 272.4L360.431 273.802C361.104 272.767 362.076 272.273 363.301 272.317C365.214 272.387 366.623 273.7 366.535 276.133L366.325 281.934L364.465 281.866L364.666 276.295C364.72 274.805 363.999 274.011 362.712 273.964C361.442 273.918 360.437 274.623 360.374 276.351ZM377.549 273.019L377.494 274.553L375.607 274.484L375.415 279.8C375.39 280.488 375.619 280.734 376.36 280.761L377.268 280.794L377.212 282.328L376.04 282.286C374.294 282.222 373.483 281.469 373.537 279.971L373.738 274.417L372.099 274.357L372.154 272.823L373.794 272.883L373.886 270.344L375.755 270.411L375.663 272.95L377.549 273.019ZM382.52 282.732C379.858 282.636 378.131 280.587 378.235 277.722C378.34 274.839 380.211 272.903 382.873 273C385.535 273.096 387.252 275.162 387.148 278.045C387.044 280.91 385.183 282.829 382.52 282.732ZM382.579 281.128C384.174 281.186 385.199 279.952 385.27 277.977C385.343 275.976 384.402 274.662 382.815 274.604C381.228 274.547 380.194 275.789 380.122 277.79C380.05 279.774 380.983 281.07 382.579 281.128ZM82.1782 299.347L82.6488 286.352L84.4737 286.419L84.4252 287.759L84.4516 287.76C85.0793 286.758 86.1818 286.295 87.3896 286.339C89.7963 286.426 91.3472 288.451 91.2431 291.325C91.1387 294.207 89.4545 296.106 87.0302 296.018C85.8136 295.974 84.8363 295.418 84.249 294.329L84.2225 294.328L84.0383 299.414L82.1782 299.347ZM86.7092 294.4C88.2079 294.454 89.2805 293.354 89.3565 291.256C89.4328 289.149 88.4426 287.975 86.9439 287.92C85.3571 287.863 84.2878 289.113 84.2169 291.07C84.146 293.027 85.1224 294.343 86.7092 294.4ZM92.7142 296.039L93.0514 286.729L94.8322 286.794L94.7776 288.301L94.8129 288.303C95.1934 287.301 95.9383 286.719 97.1196 286.762C97.4017 286.772 97.6476 286.807 97.7969 286.831L97.7339 288.567C97.5939 288.536 97.1906 288.459 96.7586 288.444C95.7095 288.406 94.8285 289.089 94.7736 290.605L94.5743 296.106L92.7142 296.039ZM102.704 296.612C100.041 296.516 98.3147 294.467 98.4185 291.602C98.5229 288.719 100.394 286.783 103.056 286.88C105.719 286.976 107.436 289.042 107.331 291.925C107.227 294.79 105.366 296.709 102.704 296.612ZM102.762 295.008C104.357 295.066 105.382 293.832 105.453 291.857C105.526 289.856 104.585 288.542 102.998 288.484C101.411 288.427 100.378 289.669 100.305 291.671C100.233 293.654 101.166 294.95 102.762 295.008ZM108.812 296.622L109.149 287.312L110.956 287.378L110.9 288.938C111.514 287.813 112.585 287.251 113.74 287.293C115.009 287.339 116.006 288.099 116.358 289.109C116.897 288.123 117.998 287.448 119.373 287.497C121.101 287.56 122.435 288.738 122.354 290.977L122.132 297.104L120.263 297.037L120.48 291.068C120.528 289.737 119.684 289.142 118.679 289.105C117.436 289.06 116.638 289.888 116.595 291.078L116.385 296.896L114.551 296.83L114.771 290.738C114.81 289.671 114.069 288.938 113.011 288.9C111.926 288.861 110.929 289.601 110.875 291.074L110.672 296.689L108.812 296.622ZM128.234 297.537C125.572 297.441 123.845 295.392 123.949 292.527C124.053 289.644 125.924 287.708 128.587 287.805C131.249 287.901 132.966 289.967 132.862 292.85C132.758 295.715 130.896 297.634 128.234 297.537ZM128.292 295.933C129.888 295.991 130.912 294.756 130.984 292.782C131.056 290.781 130.115 289.467 128.528 289.409C126.942 289.352 125.908 290.594 125.835 292.595C125.764 294.579 126.697 295.875 128.292 295.933ZM139.167 288.4L139.111 289.934L137.224 289.865L137.032 295.181C137.007 295.869 137.236 296.115 137.977 296.142L138.885 296.175L138.829 297.709L137.657 297.667C135.911 297.603 135.1 296.85 135.154 295.352L135.356 289.798L133.716 289.738L133.771 288.204L135.411 288.264L135.503 285.725L137.372 285.792L137.28 288.331L139.167 288.4ZM144.111 298.112C141.352 298.012 139.751 295.915 139.853 293.103C139.955 290.264 141.828 288.284 144.367 288.376C147.003 288.472 148.641 290.526 148.537 293.4L148.518 293.902L141.669 293.654C141.67 295.332 142.563 296.503 144.194 296.562C145.41 296.606 146.244 296.027 146.54 295.155L148.33 295.22C147.921 297.006 146.218 298.189 144.111 298.112ZM141.737 292.244L146.754 292.426C146.657 290.94 145.739 289.979 144.328 289.928C142.926 289.878 141.95 290.769 141.737 292.244ZM154.273 301.958L154.33 300.389L155.335 300.426C155.917 300.447 156.272 300.142 156.582 299.394L157.045 298.307L153.783 288.929L155.776 289.001L157.451 294.173C157.672 294.878 157.876 295.583 158.08 296.288C158.335 295.6 158.598 294.912 158.87 294.224L160.889 289.187L162.855 289.258L158.227 300.045C157.658 301.375 156.715 302.047 155.455 302.001L154.273 301.958ZM167.429 298.957C164.767 298.86 163.04 296.812 163.144 293.947C163.248 291.064 165.119 289.128 167.781 289.224C170.444 289.321 172.161 291.387 172.056 294.27C171.953 297.135 170.091 299.053 167.429 298.957ZM167.487 297.352C169.083 297.41 170.107 296.176 170.179 294.201C170.251 292.2 169.31 290.886 167.723 290.829C166.136 290.771 165.103 292.014 165.03 294.015C164.958 295.999 165.891 297.295 167.487 297.352ZM176.898 299.273C174.985 299.204 173.576 297.891 173.664 295.458L173.874 289.657L175.734 289.724L175.533 295.296C175.479 296.786 176.2 297.58 177.496 297.627C178.757 297.672 179.762 296.967 179.825 295.239L180.019 289.879L181.879 289.947L181.542 299.256L179.717 299.19L179.768 297.788C179.095 298.823 178.132 299.318 176.898 299.273ZM183.64 299.332L183.977 290.023L185.758 290.087L185.703 291.595L185.739 291.596C186.119 290.595 186.864 290.013 188.045 290.055C188.327 290.066 188.573 290.101 188.723 290.124L188.66 291.861C188.52 291.829 188.116 291.753 187.684 291.737C186.635 291.699 185.754 292.382 185.699 293.899L185.5 299.4L183.64 299.332ZM193.944 303.395L194.415 290.401L196.24 290.467L196.191 291.807L196.218 291.808C196.845 290.807 197.948 290.344 199.156 290.387C201.562 290.474 203.113 292.499 203.009 295.373C202.905 298.256 201.221 300.154 198.796 300.067C197.58 300.023 196.602 299.466 196.015 298.377L195.989 298.376L195.804 303.463L193.944 303.395ZM198.475 298.448C199.974 298.503 201.047 297.403 201.123 295.305C201.199 293.198 200.209 292.023 198.71 291.969C197.123 291.911 196.054 293.161 195.983 295.119C195.912 297.076 196.888 298.391 198.475 298.448ZM204.48 300.087L204.818 290.778L206.598 290.842L206.544 292.35L206.579 292.351C206.96 291.35 207.704 290.768 208.886 290.81C209.168 290.821 209.414 290.856 209.563 290.879L209.5 292.616C209.36 292.584 208.957 292.508 208.525 292.492C207.476 292.454 206.595 293.137 206.54 294.653L206.34 300.155L204.48 300.087ZM214.47 300.661C211.807 300.564 210.081 298.516 210.185 295.651C210.289 292.768 212.16 290.832 214.822 290.928C217.485 291.025 219.202 293.091 219.097 295.973C218.994 298.839 217.132 300.757 214.47 300.661ZM214.528 299.056C216.123 299.114 217.148 297.88 217.22 295.905C217.292 293.904 216.351 292.59 214.764 292.533C213.177 292.475 212.144 293.718 212.071 295.719C211.999 297.702 212.932 298.999 214.528 299.056ZM220.915 291.361L222.784 291.428L222.406 301.866C222.351 303.374 221.37 304.389 219.633 304.326L218.858 304.298L218.914 302.729L219.443 302.748C220.184 302.775 220.515 302.416 220.546 301.552L220.915 291.361ZM221.908 289.79C221.246 289.766 220.745 289.245 220.768 288.61C220.791 287.967 221.329 287.483 221.99 287.507C222.652 287.531 223.145 288.052 223.121 288.695C223.098 289.33 222.569 289.814 221.908 289.79ZM228.513 301.17C225.754 301.07 224.153 298.972 224.255 296.16C224.357 293.322 226.23 291.341 228.769 291.433C231.405 291.529 233.043 293.583 232.939 296.457L232.92 296.96L226.071 296.712C226.072 298.389 226.965 299.56 228.596 299.619C229.812 299.663 230.646 299.084 230.942 298.212L232.732 298.277C232.323 300.063 230.62 301.246 228.513 301.17ZM226.139 295.302L231.156 295.483C231.059 293.997 230.141 293.037 228.73 292.986C227.329 292.935 226.352 293.826 226.139 295.302ZM238.36 301.526C235.698 301.43 233.99 299.364 234.093 296.517C234.197 293.651 236.059 291.698 238.713 291.794C240.935 291.874 242.505 293.352 242.663 295.335L240.812 295.268C240.656 294.212 239.924 293.444 238.664 293.398C237.059 293.34 236.052 294.593 235.979 296.585C235.908 298.56 236.814 299.864 238.427 299.922C239.706 299.968 240.393 299.278 240.679 298.203L242.557 298.271C242.275 300.203 240.582 301.607 238.36 301.526ZM248.852 292.373L248.797 293.907L246.91 293.838L246.718 299.154C246.693 299.842 246.922 300.089 247.663 300.115L248.571 300.148L248.515 301.682L247.343 301.64C245.597 301.576 244.786 300.823 244.84 299.325L245.041 293.771L243.401 293.711L243.457 292.177L245.097 292.237L245.189 289.698L247.058 289.765L246.966 292.304L248.852 292.373Z" fill="#292524"/>
</g>
<path d="M319.402 124.863C334.038 146.24 347.43 169.744 358.975 192.89C364.42 203.808 369.38 215.076 373.954 226.391C377.478 235.109 375.42 228.319 374.876 222.473C370.163 171.825 370.277 118.182 396.708 73.0882C411.201 48.3633 431.338 22.94 453.92 5.00007" stroke="url(#paint0_linear_2020_269)" stroke-width="10" stroke-linecap="round"/>
<defs>
<filter id="filter0_f_2020_269" x="0" y="62.0315" width="340.825" height="165.714" filterUnits="userSpaceOnUse" color-interpolation-filters="sRGB">
<feFlood flood-opacity="0" result="BackgroundImageFix"/>
<feBlend mode="normal" in="SourceGraphic" in2="BackgroundImageFix" result="shape"/>
<feGaussianBlur stdDeviation="2" result="effect1_foregroundBlur_2020_269"/>
</filter>
<filter id="filter1_f_2020_269" x="257.999" y="31.9995" width="67.001" height="83.0024" filterUnits="userSpaceOnUse" color-interpolation-filters="sRGB">
<feFlood flood-opacity="0" result="BackgroundImageFix"/>
<feBlend mode="normal" in="SourceGraphic" in2="BackgroundImageFix" result="shape"/>
<feGaussianBlur stdDeviation="2" result="effect1_foregroundBlur_2020_269"/>
</filter>
<filter id="filter2_dd_2020_269" x="0.0256729" y="82.0973" width="515.279" height="303.123" filterUnits="userSpaceOnUse" color-interpolation-filters="sRGB">
<feFlood flood-opacity="0" result="BackgroundImageFix"/>
<feColorMatrix in="SourceAlpha" type="matrix" values="0 0 0 0 0 0 0 0 0 0 0 0 0 0 0 0 0 0 127 0" result="hardAlpha"/>
<feOffset dy="12"/>
<feGaussianBlur stdDeviation="20"/>
<feComposite in2="hardAlpha" operator="out"/>
<feColorMatrix type="matrix" values="0 0 0 0 0 0 0 0 0 0 0 0 0 0 0 0 0 0 0.04 0"/>
<feBlend mode="normal" in2="BackgroundImageFix" result="effect1_dropShadow_2020_269"/>
<feColorMatrix in="SourceAlpha" type="matrix" values="0 0 0 0 0 0 0 0 0 0 0 0 0 0 0 0 0 0 127 0" result="hardAlpha"/>
<feOffset dy="-24"/>
<feGaussianBlur stdDeviation="30.55"/>
<feComposite in2="hardAlpha" operator="out"/>
<feColorMatrix type="matrix" values="0 0 0 0 0.984314 0 0 0 0 0.984314 0 0 0 0 0.980392 0 0 0 1 0"/>
<feBlend mode="normal" in2="effect1_dropShadow_2020_269" result="effect2_dropShadow_2020_269"/>
<feBlend mode="normal" in="SourceGraphic" in2="effect2_dropShadow_2020_269" result="shape"/>
</filter>
<linearGradient id="paint0_linear_2020_269" x1="546.435" y1="-590.584" x2="325.928" y2="560.955" gradientUnits="userSpaceOnUse">
<stop stop-color="#80935D" stop-opacity="0.9"/>
<stop offset="0.705055" stop-color="#D9F99D"/>
</linearGradient>
</defs>
</svg>
