<svg width="203" height="30" viewBox="0 0 203 30" fill="none" xmlns="http://www.w3.org/2000/svg">
<path d="M15.2821 17.8353V12.7003H29.71C31.4217 20.7701 25.4309 30.3065 15.0384 29.3284C4.64642 28.9616 -1.96867e-05 20.1588 0 15.5125C0.367023 4.38702 9.41431 -1.35932 18.706 1.20788L16.6276 2.43047C19.8064 2.18597 22.9037 3.53082 24.0855 4.63117L22.2516 5.12022C27.1421 7.32093 27.0198 9.68465 27.6311 11.8446C26.3596 7.34538 20.0509 7.15789 17.1166 7.68769L19.1951 5.85376C14.9159 4.75343 10.8813 7.93208 9.65866 9.03243L10.1477 7.32077C5.62456 10.4996 5 15 6.53028 18.141C12.0049 29.3778 23.8404 22.0751 23.8404 17.8353H15.2821Z" fill="#292524"/>
<path d="M49.4063 7.6625C52.6125 7.6625 54.75 9.51875 55.2 12.0313H52.65C52.2188 10.5312 50.9063 9.8 49.3875 9.8C47.1188 9.8 45.525 11.3937 45.525 14.6375C45.525 17.8812 47.0438 19.6062 49.3688 19.6062C50.8125 19.6062 52.7625 18.875 52.7625 16.7V16.475H49.3688V14.2812H55.2375V21.5H53.1188L53.0438 19.9062C52.275 21.0312 50.8875 21.7438 48.9563 21.7438C45.1313 21.7438 42.75 18.9875 42.75 14.6375C42.75 10.4187 45.2438 7.6625 49.4063 7.6625ZM61.622 13.2125C60.197 13.2125 59.1845 14.3562 59.1845 16.475C59.1845 18.5937 60.197 19.7187 61.622 19.7187C63.047 19.7187 64.0595 18.5937 64.0595 16.475C64.0595 14.3562 63.047 13.2125 61.622 13.2125ZM61.622 21.7438C59.072 21.7438 56.5595 20 56.5595 16.475C56.5595 12.9312 59.072 11.1875 61.622 11.1875C64.172 11.1875 66.6845 12.9312 66.6845 16.475C66.6845 20 64.172 21.7438 61.622 21.7438ZM77.3272 21.5H74.7397V20.225C74.0834 21.35 72.8834 21.7438 71.8334 21.7438C69.4334 21.7438 67.4459 19.6812 67.4459 16.4562C67.4459 13.2875 69.3959 11.1875 71.8334 11.1875C73.1084 11.1875 74.1959 11.75 74.7397 12.7062V7.90625H77.3272V21.5ZM72.4709 19.7562C73.8959 19.7562 74.8334 18.5375 74.8334 16.4562C74.8334 14.4312 73.8959 13.175 72.4709 13.175C71.1209 13.175 70.1647 14.5062 70.1647 16.475C70.1647 18.4437 71.1209 19.7562 72.4709 19.7562ZM87.3812 14.45H84.9624C84.7562 13.6062 84.0062 13.0062 82.8062 13.0062C81.8499 13.0062 81.1749 13.3625 81.1749 13.9812C81.1749 14.525 81.5687 14.9375 82.5249 15.1437L83.8749 15.4437C85.8812 15.8937 87.5874 16.4 87.5874 18.4812C87.5874 20.5062 85.5062 21.7438 83.2187 21.7438C80.7437 21.7438 78.8687 20.4687 78.6249 18.1625H81.1187C81.2687 19.1375 81.9437 19.8687 83.2937 19.8687C84.4187 19.8687 85.1124 19.4562 85.1124 18.725C85.1124 17.975 84.3437 17.6937 83.4624 17.4875L81.9624 17.1687C80.0687 16.775 78.8124 15.9875 78.8124 14.15C78.8124 12.35 80.7624 11.15 82.9374 11.15C85.0374 11.15 87.0249 12.125 87.3812 14.45ZM94.9727 14.6937C94.9727 17.9 96.7352 19.6062 98.854 19.6062C100.973 19.6062 102.735 17.9 102.735 14.6937C102.735 11.5062 100.973 9.8 98.854 9.8C96.7352 9.8 94.9727 11.5062 94.9727 14.6937ZM105.51 14.6937C105.51 18.9125 102.904 21.7438 98.854 21.7438C94.804 21.7438 92.1977 18.9125 92.1977 14.6937C92.1977 10.475 94.804 7.6625 98.854 7.6625C102.904 7.6625 105.51 10.475 105.51 14.6937ZM107.312 11.4125V10.85C107.312 8.3 108.512 7.90625 111.044 7.90625H111.925V9.81875H111.419C110.144 9.81875 109.9 9.96875 109.9 10.925V11.4125H111.925V13.1937H109.9V21.5H107.312V13.1937H105.887V11.4125H107.312ZM125.288 21.5H122.625L119.269 11.2812V21.5H116.775V7.90625H120.675L123.975 18.5L127.181 7.90625H131.119V21.5H128.625V11.2812L125.288 21.5ZM139.416 17.6375V16.8875C136.51 17.1875 135.366 17.525 135.366 18.65C135.366 19.3812 135.929 19.9812 137.11 19.9812C138.741 19.9812 139.416 19.1187 139.416 17.6375ZM139.641 20.2437C138.91 21.2937 137.86 21.7438 136.341 21.7438C134.41 21.7438 132.704 20.6187 132.704 18.7812C132.704 16.4 135.366 15.6875 139.341 15.2375V15.0687C139.341 13.5125 138.498 12.9687 137.448 12.9687C136.454 12.9687 135.629 13.475 135.573 14.6H133.154C133.36 12.6125 134.973 11.15 137.579 11.15C139.96 11.15 141.929 12.2 141.929 15.5937C141.929 15.8937 141.891 17.2625 141.891 18.1625C141.891 19.7562 141.985 20.6562 142.191 21.5H139.81C139.735 21.1812 139.698 20.75 139.641 20.2437ZM149.484 11.4687V13.9062C149.109 13.85 148.791 13.85 148.416 13.85C147.141 13.85 146.297 14.3187 146.297 16.2125V21.5H143.709V11.4125H146.259V13.175C146.841 11.9187 147.741 11.4312 148.922 11.4312C149.091 11.4312 149.316 11.45 149.484 11.4687ZM150.439 7.90625H153.026V15.4625L156.701 11.4125H159.608L155.989 15.275L159.814 21.5H156.908L154.264 17.1312L153.026 18.4625V21.5H150.439V7.90625ZM169.637 17.1687H162.194C162.344 18.8937 163.506 19.7375 164.744 19.7375C165.55 19.7375 166.337 19.4562 166.862 18.575H169.525C168.981 20.075 167.519 21.7438 164.762 21.7438C161.519 21.7438 159.625 19.325 159.625 16.4187C159.625 13.4187 161.706 11.1875 164.687 11.1875C167.8 11.1875 169.731 13.6062 169.637 17.1687ZM164.669 13.0812C163.694 13.0812 162.437 13.6812 162.231 15.3875H167.012C166.956 13.6812 165.756 13.0812 164.669 13.0812ZM171.285 11.4125V8.675H173.873V11.4125H175.973V13.1937H173.873V18.4062C173.873 19.4375 174.229 19.6437 175.148 19.6437H175.935V21.5H174.042C171.717 21.5 171.285 20.7875 171.285 18.7812V13.1937H169.86V11.4125H171.285ZM177.256 11.4125H179.843V21.5H177.256V11.4125ZM177.256 7.90625H179.843V10.3062H177.256V7.90625ZM184.375 11.4125V12.7437C184.957 11.7125 186.044 11.1875 187.3 11.1875C189.719 11.1875 190.788 12.65 190.788 15.1437V21.5H188.2V15.7062C188.2 14.4125 187.919 13.2687 186.457 13.2687C184.75 13.2687 184.375 14.6562 184.375 16.25V21.5H181.788V11.4125H184.375ZM196.97 19.175C198.414 19.175 199.295 17.9562 199.295 16.1562C199.295 14.375 198.414 13.1562 196.97 13.1562C195.639 13.1562 194.645 14.4875 194.645 16.175C194.645 17.8437 195.639 19.175 196.97 19.175ZM199.201 11.4125H201.77V20.4875C201.77 23.7875 199.914 25.025 196.82 25.025C194.664 25.025 192.77 24.2375 192.414 21.8938H194.87C195.095 22.7188 195.789 23.1313 196.951 23.1313C198.301 23.1313 199.201 22.4938 199.201 20.975V19.625C198.545 20.7312 197.364 21.1437 196.314 21.1437C193.839 21.1437 191.926 19.1 191.926 16.1562C191.926 13.2875 193.782 11.1875 196.314 11.1875C197.589 11.1875 198.751 11.8437 199.201 12.725V11.4125Z" fill="#292524"/>
</svg>
