<?xml version="1.0" encoding="utf-8"?><svg viewBox="0 0 25 20" xmlns="http://www.w3.org/2000/svg" xmlns:xlink="http://www.w3.org/1999/xlink"><style>:root>svg{display:none}:root>svg:target{display:block}</style><svg viewBox="0 0 25 16" id="camera" xmlns="http://www.w3.org/2000/svg"><path d="M3.453 15.879c-.983 0-1.751-.27-2.305-.81-.553-.541-.83-1.303-.83-2.286V3.105c0-.976.287-1.735.86-2.275.58-.54 1.338-.81 2.275-.81H14.04c.983 0 1.735.27 2.256.81.52.54.781 1.299.781 2.275v9.678c0 .983-.277 1.745-.83 2.285-.553.54-1.321.81-2.305.81H3.453zm14.951-5.049V5.06l3.555-3.067c.17-.15.345-.267.527-.351.19-.085.371-.127.547-.127.378 0 .68.127.908.38.235.248.352.573.352.977v10.156c0 .404-.117.733-.352.987-.227.247-.53.37-.908.37-.176 0-.358-.042-.547-.126a2.652 2.652 0 01-.527-.352l-3.555-3.076z"/></svg><svg viewBox="0 0 8 13" id="chevron.left" xmlns="http://www.w3.org/2000/svg"><path opacity=".32" d="M.625 6.564c0-.118.02-.227.062-.328a.985.985 0 01.205-.287L6.217.74a.776.776 0 01.56-.225c.15 0 .285.036.404.109a.79.79 0 01.294.28.792.792 0 01-.144.978L2.532 6.564l4.8 4.683a.799.799 0 01.252.581.741.741 0 01-.11.397.772.772 0 01-.293.287.754.754 0 01-.404.11.764.764 0 01-.56-.233L.892 7.179a.986.986 0 01-.205-.286.858.858 0 01-.062-.329z"/></svg><svg viewBox="0 0 18 20" id="flag" xmlns="http://www.w3.org/2000/svg"><path d="M1.068 19.54a.722.722 0 01-.527-.226.694.694 0 01-.215-.507V2.577c0-.444.101-.798.303-1.065.208-.274.478-.485.81-.635.248-.11.492-.202.733-.273.24-.079.524-.134.85-.166.332-.04.751-.06 1.26-.06.904 0 1.738.089 2.5.265.767.175 1.51.38 2.226.615a30.15 30.15 0 002.187.625c.742.176 1.543.263 2.403.263.84 0 1.497-.068 1.972-.205.482-.136.843-.205 1.084-.205.287 0 .528.072.723.215.195.143.293.348.293.615v9.913c0 .449-.101.81-.303 1.084a2.012 2.012 0 01-.81.624c-.248.111-.492.206-.733.284-.24.071-.524.127-.85.166-.325.032-.742.048-1.25.048-.859 0-1.66-.087-2.402-.263a33.791 33.791 0 01-2.187-.615 25.327 25.327 0 00-2.227-.616 10.736 10.736 0 00-2.5-.273c-.716 0-1.299.065-1.748.195a9.32 9.32 0 00-.85.264v5.43a.705.705 0 01-.214.517.717.717 0 01-.528.215z"/></svg><svg viewBox="0 0 25 20" id="video" xmlns="http://www.w3.org/2000/svg"><path d="M13.008 12.342c.195 0 .316-.108.361-.322.11-.593.218-1.094.322-1.504a4.35 4.35 0 01.4-1.036c.164-.273.375-.498.636-.673.26-.176.595-.316 1.005-.42.417-.111.931-.209 1.543-.293.222-.02.332-.14.332-.362 0-.214-.11-.338-.332-.37a13.165 13.165 0 01-1.543-.294 3.643 3.643 0 01-1.035-.43 2.056 2.056 0 01-.644-.673 3.875 3.875 0 01-.4-1.026c-.105-.41-.2-.904-.284-1.484-.039-.221-.16-.332-.361-.332-.195 0-.322.107-.381.322a21.11 21.11 0 01-.332 1.514c-.104.41-.238.752-.4 1.025a1.998 1.998 0 01-.625.674c-.26.17-.596.31-1.006.42a13.79 13.79 0 01-1.534.283c-.22.033-.332.157-.332.371 0 .209.111.33.332.362.769.078 1.387.192 1.856.342.469.143.83.354 1.084.634.26.274.459.648.596 1.123.136.476.257 1.081.361 1.817.032.221.16.332.38.332zm-3.965 1.65c.143 0 .238-.078.283-.234.065-.365.12-.651.166-.86.052-.214.127-.377.225-.488.097-.11.25-.192.459-.244.215-.059.524-.117.928-.176.156-.039.234-.133.234-.283 0-.163-.078-.254-.234-.273a9.523 9.523 0 01-.928-.186c-.209-.065-.362-.15-.46-.254a1.13 1.13 0 01-.224-.478c-.045-.209-.1-.489-.166-.84-.045-.176-.14-.264-.283-.264-.137 0-.231.088-.283.264l-.186.84c-.045.208-.117.367-.215.478-.09.104-.244.189-.459.254-.208.059-.51.12-.908.186-.156.02-.234.11-.234.273 0 .156.084.25.254.283.397.059.7.117.908.176.208.052.358.133.45.244.09.104.159.26.204.469l.186.85c.052.175.146.263.283.263zm-6.24 2.402c-.834 0-1.462-.204-1.885-.615-.417-.41-.625-1.041-.625-1.894V2.693C.293 1.84.501 1.21.918.8 1.341.389 1.969.184 2.803.184h19.394c.834 0 1.459.205 1.875.615.423.41.635 1.041.635 1.894v11.192c0 .853-.212 1.484-.635 1.894-.416.41-1.041.616-1.875.616H2.803zm4.785 3.311a.76.76 0 01-.557-.234.76.76 0 01-.234-.557c0-.221.078-.41.234-.566a.777.777 0 01.557-.225h9.824c.215 0 .4.075.557.225a.772.772 0 01.234.566.76.76 0 01-.234.557.76.76 0 01-.557.234H7.588z"/></svg></svg>