<svg width="1268" height="525" viewBox="0 0 1268 525" fill="none" xmlns="http://www.w3.org/2000/svg">
<circle cx="262.192" cy="262.192" r="261.565" stroke="#DBDBDB" stroke-width="1.25451"/>
<circle cx="262" cy="262" r="169.373" stroke="#DBDBDB" stroke-width="1.25451"/>
<g clip-path="url(#clip0_29_534)">
<path d="M171 384C184.255 384 195 373.255 195 360C195 346.745 184.255 336 171 336C157.745 336 147 346.745 147 360C147 373.255 157.745 384 171 384Z" fill="#627EEA"/>
<path d="M171.001 342V355.305L182.246 360.33L171.001 342Z" fill="white" fill-opacity="0.602"/>
<path d="M170.974 342L159.727 360.33L170.974 355.305V342Z" fill="white"/>
<path d="M171.001 369.528V378.569L182.254 363L171.001 369.528Z" fill="white" fill-opacity="0.602"/>
<path d="M170.974 378.569V369.526L159.727 363L170.974 378.569Z" fill="white"/>
<path d="M171.001 366.664L182.246 360.135L171.001 355.113V366.664Z" fill="white" fill-opacity="0.2"/>
<path d="M159.727 360.135L170.974 366.664V355.113L159.727 360.135Z" fill="white" fill-opacity="0.602"/>
</g>
<circle cx="397.858" cy="160.23" r="4.39078" fill="#F6F6F5" stroke="#DBDBDB" stroke-width="1.25451"/>
<g clip-path="url(#clip1_29_534)">
<path d="M398 140C411.255 140 422 129.255 422 116C422 102.745 411.255 92 398 92C384.745 92 374 102.745 374 116C374 129.255 384.745 140 398 140Z" fill="#F7931A"/>
<path d="M408.548 113.03C409.019 109.886 406.624 108.195 403.351 107.068L404.413 102.807L401.821 102.163L400.786 106.31C400.105 106.139 399.406 105.98 398.708 105.821L399.751 101.647L397.159 101L396.097 105.258C395.533 105.129 394.978 105.004 394.441 104.869L394.444 104.855L390.868 103.962L390.178 106.732C390.178 106.732 392.102 107.173 392.062 107.2C393.112 107.462 393.301 108.156 393.269 108.708L392.06 113.561C392.132 113.579 392.225 113.606 392.33 113.646L392.056 113.579L390.361 120.377C390.232 120.695 389.906 121.173 389.171 120.992C389.198 121.029 387.287 120.522 387.287 120.522L386 123.49L389.375 124.331C390.002 124.489 390.617 124.653 391.222 124.808L390.149 129.116L392.74 129.761L393.802 125.501C394.51 125.691 395.197 125.868 395.869 126.036L394.81 130.278L397.402 130.924L398.474 126.625C402.896 127.462 406.22 127.124 407.62 123.125C408.748 119.906 407.564 118.048 405.238 116.837C406.933 116.447 408.208 115.333 408.548 113.03ZM402.623 121.337C401.824 124.558 396.401 122.816 394.643 122.38L396.068 116.672C397.826 117.111 403.462 117.98 402.623 121.337ZM403.426 112.984C402.695 115.913 398.183 114.424 396.721 114.059L398.011 108.884C399.473 109.248 404.188 109.928 403.426 112.984Z" fill="white"/>
</g>
<circle cx="53.9438" cy="104.124" r="4.39078" fill="#F6F6F5" stroke="#DBDBDB" stroke-width="1.25451"/>
<g clip-path="url(#clip2_29_534)">
<path d="M54 84C67.2548 84 78 73.2548 78 60C78 46.7452 67.2548 36 54 36C40.7452 36 30 46.7452 30 60C30 73.2548 40.7452 84 54 84Z" fill="#26A17B"/>
<path fill-rule="evenodd" clip-rule="evenodd" d="M56.433 62.346V62.343C56.268 62.355 55.4175 62.406 53.52 62.406C52.005 62.406 50.9385 62.361 50.5635 62.343V62.3475C44.7315 62.091 40.3785 61.0755 40.3785 59.8605C40.3785 58.647 44.7315 57.6315 50.5635 57.3705V61.3365C50.9445 61.3635 52.0365 61.428 53.5455 61.428C55.356 61.428 56.2635 61.353 56.433 61.338V57.3735C62.253 57.633 66.5955 58.6485 66.5955 59.8605C66.5955 61.0755 62.253 62.088 56.433 62.346ZM56.433 56.961V53.412H64.554V48H42.4425V53.412H50.5635V56.9595C43.9635 57.2625 39 58.5705 39 60.1365C39 61.7025 43.9635 63.009 50.5635 63.3135V74.6865H56.433V63.3105C63.0225 63.0075 67.974 61.701 67.974 60.1365C67.974 58.572 63.0225 57.2655 56.433 56.961Z" fill="white"/>
</g>
<circle cx="171.122" cy="404.842" r="4.39078" fill="#F6F6F5" stroke="#DBDBDB" stroke-width="1.25451"/>
<circle cx="989.808" cy="262.192" r="261.565" stroke="#DBDBDB" stroke-width="1.25451"/>
<circle cx="990" cy="260" r="169.373" stroke="#DBDBDB" stroke-width="1.25451"/>
<circle cx="1244.47" cy="203.23" r="4.39078" fill="#F6F6F5" stroke="#DBDBDB" stroke-width="1.25451"/>
<g clip-path="url(#clip3_29_534)">
<path d="M1244 183C1257.25 183 1268 172.255 1268 159C1268 145.745 1257.25 135 1244 135C1230.75 135 1220 145.745 1220 159C1220 172.255 1230.75 183 1244 183Z" fill="#23292F"/>
<path d="M1254.6 147H1258.94L1249.92 155.935C1248.34 157.49 1246.21 158.361 1244 158.361C1241.79 158.361 1239.66 157.49 1238.08 155.935L1229.05 147H1233.4L1240.25 153.784C1241.25 154.77 1242.59 155.322 1244 155.322C1245.4 155.322 1246.75 154.77 1247.74 153.784L1254.6 147ZM1233.34 171.844H1229L1238.08 162.855C1239.66 161.301 1241.79 160.43 1244 160.43C1246.21 160.43 1248.34 161.301 1249.92 162.855L1259 171.843H1254.66L1247.75 165C1246.75 164.015 1245.41 163.462 1244 163.462C1242.6 163.462 1241.25 164.015 1240.26 165L1233.34 171.844H1233.34Z" fill="white"/>
</g>
<circle cx="771.559" cy="119.124" r="4.39078" fill="#F6F6F5" stroke="#DBDBDB" stroke-width="1.25451"/>
<rect x="747" y="51" width="48" height="48" rx="24" fill="#E84142"/>
<path fill-rule="evenodd" clip-rule="evenodd" d="M764.203 84.5382H759.549C758.571 84.5382 758.088 84.5382 757.793 84.3499C757.475 84.1437 757.28 83.8022 757.257 83.4253C757.239 83.0781 757.481 82.654 757.964 81.8061L769.457 61.5619C769.946 60.7022 770.193 60.2724 770.505 60.1134C770.841 59.9427 771.242 59.9427 771.578 60.1134C771.89 60.2724 772.138 60.7022 772.627 61.5619L774.989 65.6835L775.001 65.7045C775.529 66.6268 775.797 67.0944 775.914 67.5853C776.044 68.1211 776.044 68.6864 775.914 69.2222C775.796 69.7168 775.531 70.1878 774.995 71.124L768.958 81.7885L768.943 81.8158C768.411 82.7456 768.141 83.2169 767.768 83.5725C767.361 83.9612 766.872 84.2436 766.336 84.4029C765.847 84.5382 765.299 84.5382 764.203 84.5382ZM775.958 84.5382H782.627C783.611 84.5382 784.106 84.5382 784.401 84.3442C784.719 84.138 784.919 83.7904 784.937 83.4138C784.954 83.0778 784.718 82.6702 784.255 81.8716C784.239 81.8444 784.223 81.8168 784.207 81.7886L780.866 76.0772L780.828 76.0129C780.358 75.2196 780.121 74.819 779.817 74.6641C779.481 74.4933 779.086 74.4933 778.751 74.6641C778.444 74.8231 778.197 75.2411 777.708 76.0831L774.379 81.7945L774.367 81.8142C773.88 82.6548 773.637 83.0749 773.654 83.4196C773.678 83.7965 773.872 84.1437 774.19 84.3499C774.479 84.5382 774.974 84.5382 775.958 84.5382Z" fill="white"/>
<circle cx="903.629" cy="405.346" r="4.39078" fill="#F6F6F5" stroke="#DBDBDB" stroke-width="1.25451"/>
<g clip-path="url(#clip4_29_534)">
<rect x="880" y="337" width="48" height="48" rx="24" fill="white"/>
<path d="M903.595 344.598C904.314 344.191 905.192 345.133 904.811 345.911C904.587 346.545 903.745 346.713 903.316 346.229C902.861 345.767 903.01 344.849 903.595 344.597V344.598ZM895.859 345.5C896.295 345.305 896.849 345.737 896.804 346.254C896.849 346.812 896.219 347.225 895.773 346.959C895.183 346.712 895.251 345.675 895.859 345.5ZM911.704 346.974C911.021 346.885 910.913 345.723 911.569 345.488C912.079 345.221 912.547 345.724 912.622 346.248C912.514 346.693 912.169 347.103 911.704 346.974ZM897.619 349.062C898.35 348.562 899.392 349.307 899.279 350.226C899.241 351.152 898.104 351.691 897.462 351.063C896.84 350.571 896.935 349.442 897.619 349.062ZM908.77 349.594C909.096 348.686 910.416 348.656 910.787 349.541C911.155 350.23 910.703 351.083 910.05 351.318C909.184 351.493 908.363 350.479 908.77 349.594ZM902.663 351.266C902.656 350.484 903.313 349.903 903.999 349.848C904.455 349.947 904.95 350.157 905.145 350.654C905.51 351.341 905.186 352.283 904.53 352.599C904.23 352.78 903.873 352.713 903.546 352.691C903.046 352.427 902.624 351.904 902.663 351.266ZM891.158 352.406C891.826 351.96 892.727 352.769 892.473 353.555C892.335 354.233 891.491 354.509 891.01 354.076C890.495 353.67 890.576 352.694 891.16 352.404L891.158 352.406ZM915.864 352.402C916.43 351.927 917.365 352.473 917.296 353.246C917.335 353.951 916.526 354.484 915.965 354.121C915.346 353.819 915.282 352.789 915.864 352.404V352.402ZM905.899 353.807C906.832 353.444 907.943 353.878 908.474 354.781C909.177 355.882 908.804 357.56 907.713 358.192C906.585 358.94 904.935 358.308 904.517 356.941C904.044 355.719 904.734 354.19 905.897 353.807H905.899ZM900.417 353.928C901.452 353.399 902.846 353.842 903.346 354.988C903.934 356.104 903.48 357.657 902.428 358.233C901.374 358.882 899.887 358.39 899.378 357.193C898.806 356.034 899.313 354.461 900.417 353.928ZM894.928 355.957C895.008 355.235 895.637 354.765 896.271 354.715C896.602 354.754 896.912 354.914 897.149 355.171C897.386 355.428 897.537 355.766 897.577 356.13C897.532 356.873 897.002 357.596 896.276 357.593C895.476 357.667 894.775 356.805 894.928 355.957ZM911.14 354.874C911.961 354.357 913.1 355.108 913.064 356.128C913.119 357.21 911.858 357.971 911.042 357.337C910.193 356.809 910.259 355.323 911.14 354.874ZM898.188 358.682C899.145 358.397 900.244 358.885 900.714 359.84C901.228 360.8 901.018 362.134 900.218 362.841C899.19 363.874 897.298 363.458 896.752 362.048C896.123 360.756 896.887 359.022 898.186 358.681L898.188 358.682ZM908.584 358.677C909.516 358.388 910.611 358.776 911.113 359.696C911.776 360.748 911.459 362.318 910.473 362.994C909.438 363.782 907.838 363.369 907.268 362.138C906.577 360.865 907.272 359.065 908.584 358.677ZM892.015 359.876C892.844 359.537 893.762 360.526 893.426 361.416C893.222 362.225 892.167 362.526 891.622 361.928C890.984 361.367 891.22 360.12 892.015 359.876ZM914.48 361.167C914.465 360.803 914.58 360.448 914.802 360.178C915.023 359.908 915.333 359.744 915.663 359.724C916.23 359.823 916.783 360.318 916.738 360.987C916.79 361.87 915.807 362.469 915.111 362.055C914.785 361.875 914.618 361.514 914.48 361.167ZM887.941 360.315C888.439 360.079 889.056 360.546 888.942 361.145C888.915 361.824 887.989 362.086 887.649 361.519C887.349 361.124 887.529 360.518 887.941 360.313V360.315ZM919.38 360.3C919.732 360.031 920.296 360.224 920.434 360.668C920.67 361.154 920.237 361.817 919.733 361.736C919.025 361.806 918.797 360.639 919.38 360.3ZM900.895 363.557C902.207 363.189 903.618 364.373 903.627 365.836C903.711 367.313 902.321 368.622 900.979 368.282C899.941 368.101 899.126 367.018 899.16 365.884C899.157 364.797 899.914 363.787 900.895 363.557ZM906.091 363.556C907.422 363.153 908.875 364.358 908.854 365.854C908.924 367.303 907.578 368.57 906.264 368.281C905.025 368.109 904.113 366.638 904.458 365.337C904.632 364.472 905.302 363.769 906.091 363.554V363.556ZM896.072 364.456C896.993 364.285 897.858 365.397 897.484 366.344C897.211 367.355 895.854 367.627 895.254 366.803C894.551 366.011 895.077 364.564 896.072 364.456ZM911.311 364.5C912.133 364.127 913.142 364.896 913.079 365.862C913.112 366.924 911.866 367.657 911.063 367.036C910.152 366.48 910.319 364.84 911.311 364.5ZM915.57 369.123C915.249 368.474 915.833 367.614 916.5 367.734C916.831 367.728 917.063 368.01 917.275 368.248C917.318 368.632 917.392 369.091 917.096 369.387C916.695 369.937 915.788 369.78 915.57 369.123ZM891.155 367.914C891.778 367.467 892.674 368.135 892.533 368.921C892.458 369.62 891.647 370.017 891.115 369.621C890.541 369.263 890.562 368.241 891.155 367.914ZM903.451 369.372C904.266 368.984 905.305 369.752 905.227 370.722C905.287 371.795 904.003 372.538 903.206 371.895C902.321 371.341 902.47 369.714 903.451 369.372ZM897.757 370.81C898.451 370.415 899.381 371.097 899.318 371.939C899.339 372.629 898.718 373.217 898.087 373.115C897.567 373.103 897.227 372.596 897.059 372.116C897.068 371.592 897.268 371.01 897.757 370.812V370.81ZM909.292 370.823C910.007 370.344 911.021 371.031 910.954 371.929C910.972 372.87 909.825 373.471 909.16 372.854C908.518 372.37 908.596 371.208 909.292 370.823ZM911.299 376.189C910.981 375.67 911.354 375.044 911.869 374.926C912.285 375.016 912.724 375.355 912.636 375.873C912.576 376.578 911.624 376.793 911.299 376.19V376.189ZM895.374 375.738C895.5 375.325 895.806 374.917 896.255 375.025C896.908 375.074 897.101 376.141 896.53 376.469C896.016 376.844 895.419 376.331 895.374 375.738ZM903.058 376.212C903.182 375.601 903.91 375.305 904.391 375.629C904.709 375.777 904.802 376.16 904.883 376.487C904.84 376.657 904.8 376.828 904.763 376.999C904.566 377.25 904.313 377.503 903.985 377.494C903.378 377.572 902.828 376.827 903.056 376.212H903.058Z" fill="#1933A7"/>
<circle cx="904" cy="361" r="23.625" stroke="#1933A7" stroke-opacity="0.2" stroke-width="0.75"/>
</g>
<path d="M520.267 261.5C520.267 263.562 521.938 265.233 524 265.233C526.062 265.233 527.733 263.562 527.733 261.5C527.733 259.438 526.062 257.767 524 257.767C521.938 257.767 520.267 259.438 520.267 261.5ZM724.267 261.5C724.267 263.562 725.938 265.233 728 265.233C730.062 265.233 731.733 263.562 731.733 261.5C731.733 259.438 730.062 257.767 728 257.767C725.938 257.767 724.267 259.438 724.267 261.5ZM524 262.2L529.667 262.2L529.667 260.8L524 260.8L524 262.2ZM541 262.2L552.333 262.2L552.333 260.8L541 260.8L541 262.2ZM563.667 262.2L575 262.2L575 260.8L563.667 260.8L563.667 262.2ZM586.333 262.2L597.667 262.2L597.667 260.8L586.333 260.8L586.333 262.2ZM609 262.2L620.333 262.2L620.333 260.8L609 260.8L609 262.2ZM631.667 262.2L643 262.2L643 260.8L631.667 260.8L631.667 262.2ZM654.333 262.2L665.667 262.2L665.667 260.8L654.333 260.8L654.333 262.2ZM677 262.2L688.333 262.2L688.333 260.8L677 260.8L677 262.2ZM699.667 262.2L711 262.2L711 260.8L699.667 260.8L699.667 262.2ZM722.333 262.2L728 262.2L728 260.8L722.333 260.8L722.333 262.2Z" fill="url(#paint0_linear_29_534)"/>
<rect x="602" y="238" width="48" height="48" rx="24" fill="#292524"/>
<defs>
<linearGradient id="paint0_linear_29_534" x1="524" y1="262" x2="728" y2="262" gradientUnits="userSpaceOnUse">
<stop offset="0.0614533" stop-color="#DBDBDB"/>
<stop offset="0.498153" stop-color="#292524"/>
<stop offset="0.866748" stop-color="#D3D3D3"/>
<stop offset="1" stop-color="#DBDBDB"/>
</linearGradient>
<clipPath id="clip0_29_534">
<rect width="48" height="48" fill="white" transform="translate(147 336)"/>
</clipPath>
<clipPath id="clip1_29_534">
<rect width="48" height="48" fill="white" transform="translate(374 92)"/>
</clipPath>
<clipPath id="clip2_29_534">
<rect width="48" height="48" fill="white" transform="translate(30 36)"/>
</clipPath>
<clipPath id="clip3_29_534">
<rect width="48" height="48" fill="white" transform="translate(1220 135)"/>
</clipPath>
<clipPath id="clip4_29_534">
<rect x="880" y="337" width="48" height="48" rx="24" fill="white"/>
</clipPath>
</defs>
</svg>
