<svg width="248" height="600" viewBox="0 0 248 600" fill="none" xmlns="http://www.w3.org/2000/svg">
<circle cx="123.909" cy="123.557" r="123.057" transform="rotate(90 123.909 123.557)" stroke="#DBDBDB"/>
<circle cx="123.999" cy="123.466" r="79.6118" transform="rotate(90 123.999 123.466)" stroke="#DBDBDB"/>
<g clip-path="url(#clip0_93_292)">
<path d="M82 88C90.8366 88 98 80.8366 98 72C98 63.1634 90.8366 56 82 56C73.1634 56 66 63.1634 66 72C66 80.8366 73.1634 88 82 88Z" fill="#627EEA"/>
<path d="M82 60V68.87L89.497 72.22L82 60Z" fill="white" fill-opacity="0.602"/>
<path d="M81.9814 60L74.4834 72.22L81.9814 68.87V60Z" fill="white"/>
<path d="M82 78.352V84.379L89.502 74L82 78.352Z" fill="white" fill-opacity="0.602"/>
<path d="M81.9814 84.379V78.351L74.4834 74L81.9814 84.379Z" fill="white"/>
<path d="M82 76.4432L89.497 72.0902L82 68.7422V76.4432Z" fill="white" fill-opacity="0.2"/>
<path d="M74.4834 72.0902L81.9814 76.4432V68.7422L74.4834 72.0902Z" fill="white" fill-opacity="0.602"/>
</g>
<circle cx="171.959" cy="187.489" r="2.06914" transform="rotate(90 171.959 187.489)" fill="#F6F6F5" stroke="#DBDBDB" stroke-width="0.591182"/>
<g clip-path="url(#clip1_93_292)">
<path d="M183 201.5C192.389 201.5 200 193.889 200 184.5C200 175.112 192.389 167.5 183 167.5C173.611 167.5 166 175.112 166 184.5C166 193.889 173.611 201.5 183 201.5Z" fill="#F7931A"/>
<path d="M190.472 182.397C190.805 180.17 189.108 178.972 186.79 178.173L187.542 175.156L185.706 174.699L184.973 177.637C184.491 177.516 183.996 177.403 183.502 177.29L184.24 174.333L182.404 173.875L181.652 176.892C181.252 176.801 180.859 176.711 180.479 176.616L180.481 176.606L177.948 175.974L177.459 177.935C177.459 177.935 178.822 178.248 178.794 178.267C179.537 178.453 179.671 178.945 179.649 179.336L178.793 182.773C178.844 182.786 178.909 182.805 178.984 182.833L178.789 182.786L177.589 187.601C177.497 187.826 177.267 188.165 176.746 188.036C176.765 188.063 175.412 187.704 175.412 187.704L174.5 189.806L176.891 190.402C177.335 190.513 177.77 190.63 178.199 190.739L177.439 193.791L179.274 194.248L180.026 191.23C180.528 191.365 181.014 191.491 181.49 191.61L180.74 194.614L182.576 195.071L183.336 192.026C186.468 192.619 188.823 192.38 189.814 189.547C190.613 187.267 189.775 185.951 188.127 185.093C189.327 184.817 190.23 184.028 190.472 182.397V182.397ZM186.275 188.281C185.708 190.562 181.867 189.328 180.622 189.019L181.632 184.976C182.877 185.288 186.869 185.903 186.275 188.281ZM186.843 182.364C186.326 184.439 183.13 183.384 182.094 183.126L183.007 179.46C184.043 179.718 187.383 180.199 186.843 182.364Z" fill="white"/>
</g>
<circle cx="198.397" cy="25.4204" r="2.06914" transform="rotate(90 198.397 25.4204)" fill="#F6F6F5" stroke="#DBDBDB" stroke-width="0.591182"/>
<g clip-path="url(#clip2_93_292)">
<path d="M214.069 47C223.144 47 230.5 39.6434 230.5 30.5686C230.5 21.4938 223.144 14.1372 214.069 14.1372C204.994 14.1372 197.638 21.4938 197.638 30.5686C197.638 39.6434 204.994 47 214.069 47Z" fill="#26A17B"/>
<path fill-rule="evenodd" clip-rule="evenodd" d="M215.735 32.1749V32.1728C215.622 32.1811 215.04 32.216 213.741 32.216C212.704 32.216 211.973 32.1852 211.717 32.1728V32.1759C207.724 32.0003 204.744 31.3051 204.744 30.4732C204.744 29.6424 207.724 28.9472 211.717 28.7685V31.4837C211.978 31.5022 212.725 31.5464 213.758 31.5464C214.998 31.5464 215.619 31.495 215.735 31.4848V28.7705C219.72 28.9482 222.693 29.6434 222.693 30.4732C222.693 31.3051 219.72 31.9983 215.735 32.1749V32.1749ZM215.735 28.4881V26.0583H221.295V22.353H206.157V26.0583H211.717V28.4871C207.198 28.6945 203.8 29.59 203.8 30.6622C203.8 31.7343 207.198 32.6288 211.717 32.8373V40.6237H215.735V32.8352C220.247 32.6278 223.637 31.7333 223.637 30.6622C223.637 29.5911 220.247 28.6966 215.735 28.4881" fill="white"/>
</g>
<circle cx="56.6851" cy="80.6406" r="2.06914" transform="rotate(90 56.6851 80.6406)" fill="#F6F6F5" stroke="#DBDBDB" stroke-width="0.591182"/>
<circle cx="123.909" cy="466.442" r="123.057" transform="rotate(90 123.909 466.442)" stroke="#DBDBDB"/>
<circle cx="124.941" cy="466.533" r="79.6118" transform="rotate(90 124.941 466.533)" stroke="#DBDBDB"/>
<circle cx="151.695" cy="586.453" r="2.06914" transform="rotate(90 151.695 586.453)" fill="#F6F6F5" stroke="#DBDBDB" stroke-width="0.591182"/>
<g clip-path="url(#clip3_93_292)">
<path d="M171.193 600C179.541 600 186.309 593.232 186.309 584.884C186.309 576.536 179.541 569.768 171.193 569.768C162.845 569.768 156.077 576.536 156.077 584.884C156.077 593.232 162.845 600 171.193 600Z" fill="#23292F"/>
<path d="M177.873 577.326H180.603L174.921 582.954C173.927 583.933 172.588 584.482 171.194 584.482C169.799 584.482 168.46 583.933 167.467 582.954L161.779 577.326H164.514L168.832 581.599C169.46 582.22 170.308 582.568 171.192 582.568C172.075 582.568 172.923 582.22 173.552 581.599L177.873 577.326ZM164.481 592.974H161.746L167.467 587.312C168.46 586.333 169.799 585.785 171.194 585.785C172.588 585.785 173.927 586.333 174.921 587.312L180.641 592.973H177.906L173.555 588.663C172.927 588.043 172.079 587.695 171.195 587.695C170.312 587.695 169.464 588.043 168.835 588.663L164.48 592.974H164.481Z" fill="white"/>
</g>
<circle cx="191.33" cy="363.594" r="2.06914" transform="rotate(90 191.33 363.594)" fill="#F6F6F5" stroke="#DBDBDB" stroke-width="0.591182"/>
<rect x="196.245" y="347.453" width="31.7546" height="31.7546" rx="15.8773" fill="#E84142"/>
<path fill-rule="evenodd" clip-rule="evenodd" d="M207.626 369.64H204.547C203.9 369.64 203.58 369.64 203.386 369.516C203.175 369.38 203.046 369.154 203.031 368.904C203.019 368.675 203.179 368.394 203.499 367.833L211.102 354.44C211.425 353.872 211.589 353.587 211.796 353.482C212.018 353.369 212.283 353.369 212.505 353.482C212.712 353.587 212.875 353.872 213.199 354.44L214.762 357.167L214.77 357.181C215.119 357.791 215.296 358.101 215.374 358.425C215.46 358.78 215.46 359.154 215.374 359.508C215.296 359.835 215.12 360.147 214.766 360.766L210.772 367.821L210.762 367.839C210.41 368.455 210.232 368.766 209.985 369.002C209.716 369.259 209.392 369.446 209.037 369.551C208.714 369.64 208.351 369.64 207.626 369.64ZM215.403 369.64H219.815C220.466 369.64 220.793 369.64 220.988 369.512C221.199 369.376 221.331 369.146 221.343 368.897C221.354 368.674 221.198 368.405 220.892 367.876C220.881 367.858 220.87 367.84 220.86 367.821L218.65 364.043L218.624 364.001C218.314 363.476 218.157 363.211 217.956 363.108C217.734 362.995 217.472 362.995 217.25 363.108C217.048 363.213 216.884 363.49 216.56 364.047L214.358 367.825L214.35 367.838C214.028 368.395 213.867 368.672 213.879 368.9C213.894 369.15 214.023 369.38 214.233 369.516C214.424 369.64 214.752 369.64 215.403 369.64Z" fill="white"/>
<circle cx="56.4468" cy="425.832" r="2.06914" transform="rotate(90 56.4468 425.832)" fill="#F6F6F5" stroke="#DBDBDB" stroke-width="0.591182"/>
<g clip-path="url(#clip4_93_292)">
<rect x="87" y="398.654" width="39.9997" height="39.9997" rx="19.9998" transform="rotate(90 87 398.654)" fill="white"/>
<path d="M80.6661 418.316C81.0059 418.915 80.2203 419.647 79.5724 419.329C79.0441 419.143 78.9037 418.441 79.3068 418.084C79.692 417.705 80.457 417.829 80.6675 418.316L80.6661 418.316ZM79.9149 411.869C80.0773 412.233 79.7168 412.695 79.2862 412.657C78.8212 412.695 78.4773 412.169 78.6988 411.798C78.9051 411.307 79.7691 411.363 79.9149 411.869V411.869ZM78.6864 425.074C78.7607 424.505 79.7292 424.414 79.9245 424.961C80.1474 425.386 79.7278 425.776 79.2917 425.839C78.9202 425.749 78.5791 425.461 78.6864 425.074V425.074ZM76.9461 413.336C77.3629 413.945 76.7424 414.813 75.9761 414.72C75.2044 414.688 74.7559 413.74 75.2786 413.205C75.6886 412.687 76.6296 412.766 76.9461 413.336ZM76.5031 422.629C77.2597 422.9 77.2845 424.001 76.5471 424.309C75.9734 424.616 75.2621 424.239 75.0668 423.695C74.9209 422.974 75.7657 422.29 76.5031 422.629ZM75.1094 417.54C75.7615 417.533 76.2458 418.081 76.2912 418.653C76.2087 419.033 76.0339 419.446 75.6198 419.608C75.0475 419.912 74.262 419.642 73.9992 419.096C73.8479 418.845 73.9043 418.548 73.9222 418.275C74.1423 417.859 74.5784 417.507 75.1094 417.54ZM74.1602 407.952C74.5316 408.509 73.8575 409.259 73.2026 409.048C72.6372 408.933 72.4075 408.23 72.7679 407.828C73.1063 407.4 73.9194 407.467 74.1615 407.954L74.1602 407.952ZM74.1629 428.54C74.5591 429.012 74.1038 429.791 73.4599 429.733C72.8725 429.766 72.4281 429.092 72.7308 428.624C72.9825 428.109 73.841 428.055 74.1615 428.54L74.1629 428.54ZM72.9922 420.236C73.2948 421.014 72.933 421.939 72.1805 422.382C71.2628 422.967 69.8651 422.657 69.3382 421.748C68.7149 420.808 69.2419 419.433 70.381 419.084C71.399 418.69 72.673 419.266 72.9922 420.235L72.9922 420.236ZM72.8917 415.668C73.332 416.53 72.9633 417.692 72.0085 418.109C71.0785 418.599 69.7839 418.22 69.3038 417.343C68.7631 416.465 69.1731 415.226 70.1705 414.802C71.1363 414.326 72.4474 414.748 72.8917 415.668V415.668ZM71.2009 411.094C71.8021 411.16 72.1942 411.684 72.2355 412.213C72.2034 412.489 72.0694 412.747 71.8552 412.945C71.641 413.142 71.3594 413.268 71.0565 413.301C70.4374 413.264 69.8348 412.822 69.8376 412.217C69.7757 411.55 70.4938 410.966 71.2009 411.094V411.094ZM72.1034 424.603C72.534 425.287 71.9081 426.237 71.0578 426.207C70.1567 426.253 69.5225 425.202 70.0508 424.522C70.491 423.814 71.7292 423.869 72.1034 424.603ZM68.9296 413.81C69.1676 414.608 68.7603 415.524 67.9652 415.915C67.1645 416.344 66.0529 416.169 65.4641 415.502C64.6028 414.646 64.9495 413.069 66.1244 412.613C67.2016 412.089 68.6462 412.726 68.9309 413.809L68.9296 413.81ZM68.9337 422.473C69.1744 423.25 68.8511 424.163 68.0849 424.581C67.2085 425.134 65.9002 424.87 65.3361 424.048C64.6799 423.185 65.0238 421.852 66.0501 421.377C67.1108 420.801 68.6104 421.38 68.9337 422.473V422.473ZM67.9349 408.666C68.2169 409.357 67.3929 410.122 66.6513 409.842C65.9772 409.672 65.7268 408.793 66.2248 408.339C66.6926 407.807 67.7313 408.004 67.9349 408.666V408.666ZM66.8591 427.387C67.1619 427.374 67.4581 427.471 67.6833 427.655C67.9085 427.84 68.0444 428.098 68.0615 428.373C67.9789 428.845 67.5662 429.306 67.009 429.268C66.273 429.312 65.7736 428.493 66.1189 427.913C66.2689 427.641 66.5702 427.502 66.8591 427.387ZM67.569 405.271C67.7657 405.686 67.3763 406.2 66.877 406.105C66.3115 406.083 66.0928 405.311 66.566 405.028C66.8948 404.778 67.3997 404.928 67.5703 405.271L67.569 405.271ZM67.5813 431.471C67.8056 431.763 67.6446 432.233 67.2745 432.349C66.8701 432.545 66.317 432.185 66.3844 431.764C66.3266 431.174 67.2993 430.984 67.5813 431.471ZM64.867 416.066C65.1738 417.16 64.1874 418.335 62.9684 418.343C61.7372 418.413 60.6462 417.255 60.9296 416.136C61.0809 415.271 61.9834 414.592 62.9286 414.621C63.8338 414.618 64.6758 415.249 64.867 416.066V416.066ZM64.8684 420.396C65.204 421.505 64.1997 422.716 62.9533 422.699C61.7454 422.757 60.6902 421.636 60.931 420.54C61.074 419.508 62.2998 418.748 63.3839 419.035C64.1048 419.181 64.6909 419.738 64.8697 420.396L64.8684 420.396ZM64.1186 412.047C64.2603 412.815 63.3344 413.535 62.5447 413.224C61.7028 412.996 61.4758 411.866 62.1623 411.365C62.8226 410.78 64.0278 411.218 64.1186 412.047V412.047ZM64.0814 424.746C64.3923 425.431 63.7512 426.272 62.9464 426.219C62.0618 426.247 61.451 425.209 61.9683 424.54C62.4319 423.78 63.798 423.919 64.0814 424.746V424.746ZM60.2293 428.295C60.77 428.028 61.4868 428.514 61.3863 429.071C61.3918 429.346 61.1566 429.54 60.9585 429.716C60.6379 429.752 60.2555 429.813 60.0092 429.567C59.5511 429.233 59.6818 428.477 60.2293 428.295V428.295ZM61.2364 407.95C61.6092 408.469 61.052 409.215 60.3972 409.098C59.8152 409.035 59.4837 408.36 59.8139 407.916C60.1124 407.438 60.964 407.456 61.2364 407.95V407.95ZM60.0216 418.196C60.3449 418.875 59.7052 419.741 58.8962 419.676C58.002 419.726 57.3829 418.657 57.9195 417.992C58.3803 417.255 59.7368 417.378 60.0216 418.196V418.196ZM58.8233 413.451C59.1521 414.029 58.5839 414.805 57.8823 414.752C57.3072 414.77 56.8175 414.252 56.9028 413.727C56.9124 413.293 57.3348 413.01 57.7351 412.87C58.1712 412.877 58.6569 413.044 58.8219 413.451L58.8233 413.451ZM58.8123 423.064C59.2113 423.659 58.639 424.505 57.8906 424.448C57.1064 424.463 56.6056 423.508 57.1201 422.954C57.5232 422.418 58.4918 422.483 58.8123 423.064ZM54.3411 424.736C54.7731 424.471 55.2945 424.782 55.3936 425.211C55.3179 425.558 55.0359 425.924 54.6039 425.85C54.0165 425.8 53.8376 425.007 54.3398 424.736L54.3411 424.736ZM54.7167 411.465C55.0606 411.57 55.4005 411.826 55.311 412.199C55.2698 412.744 54.381 412.905 54.1073 412.428C53.795 412.001 54.2228 411.503 54.7167 411.465ZM54.3219 417.869C54.8309 417.972 55.0772 418.579 54.8075 418.979C54.6837 419.244 54.3645 419.322 54.0921 419.389C53.9506 419.354 53.8085 419.32 53.6656 419.289C53.4565 419.126 53.246 418.914 53.2529 418.642C53.1883 418.135 53.8087 417.677 54.3219 417.867L54.3219 417.869Z" fill="#1933A7"/>
<circle cx="67.0002" cy="418.654" r="19.6873" transform="rotate(90 67.0002 418.654)" stroke="#1933A7" stroke-opacity="0.2" stroke-width="0.624995"/>
</g>
<path d="M124.235 244.266C122.763 244.266 121.569 245.46 121.569 246.933C121.569 248.406 122.763 249.6 124.235 249.6C125.708 249.6 126.902 248.406 126.902 246.933C126.902 245.46 125.708 244.266 124.235 244.266ZM124.235 340.401C122.763 340.401 121.569 341.595 121.569 343.067C121.569 344.54 122.763 345.734 124.235 345.734C125.708 345.734 126.902 344.54 126.902 343.067C126.902 341.595 125.708 340.401 124.235 340.401ZM123.735 246.933L123.735 249.603L124.735 249.603L124.735 246.933L123.735 246.933ZM123.735 254.944L123.735 260.285L124.735 260.285L124.735 254.944L123.735 254.944ZM123.735 265.626L123.735 270.967L124.735 270.967L124.735 265.626L123.735 265.626ZM123.735 276.307L123.735 281.648L124.735 281.648L124.735 276.307L123.735 276.307ZM123.735 286.989L123.735 292.33L124.735 292.33L124.735 286.989L123.735 286.989ZM123.735 297.671L123.735 303.011L124.735 303.011L124.735 297.671L123.735 297.671ZM123.735 308.352L123.735 313.693L124.735 313.693L124.735 308.352L123.735 308.352ZM123.735 319.034L123.735 324.375L124.735 324.375L124.735 319.034L123.735 319.034ZM123.735 329.715L123.735 335.056L124.735 335.056L124.735 329.715L123.735 329.715ZM123.735 340.397L123.735 343.067L124.735 343.067L124.735 340.397L123.735 340.397Z" fill="url(#paint0_linear_93_292)"/>
<rect x="142" y="277" width="36.0007" height="36.0007" rx="18.0003" transform="rotate(90 142 277)" fill="#292524"/>
<path d="M124.207 296.426V293.222H133.211C134.279 298.258 130.541 304.209 124.055 303.599C117.57 303.37 114.671 297.876 114.671 294.977C114.9 288.034 120.546 284.448 126.344 286.05L125.047 286.813C127.031 286.661 128.964 287.5 129.701 288.187L128.557 288.492C131.608 289.865 131.532 291.34 131.914 292.688C131.12 289.88 127.183 289.763 125.352 290.094L126.649 288.95C123.979 288.263 121.461 290.247 120.698 290.933L121.003 289.865C118.181 291.849 117.791 294.657 118.746 296.617C122.162 303.629 129.548 299.072 129.548 296.426H124.207Z" fill="#D9F99D"/>
<defs>
<linearGradient id="paint0_linear_93_292" x1="123.735" y1="246.933" x2="123.735" y2="343.067" gradientUnits="userSpaceOnUse">
<stop offset="0.0614533" stop-color="#DBDBDB"/>
<stop offset="0.498153" stop-color="#292524"/>
<stop offset="0.866748" stop-color="#D3D3D3"/>
<stop offset="1" stop-color="#DBDBDB"/>
</linearGradient>
<clipPath id="clip0_93_292">
<rect width="32" height="32" fill="white" transform="translate(66 56)"/>
</clipPath>
<clipPath id="clip1_93_292">
<rect width="34" height="34" fill="white" transform="translate(166 167.5)"/>
</clipPath>
<clipPath id="clip2_93_292">
<rect width="32.8628" height="32.8628" fill="white" transform="translate(197.638 14.1372)"/>
</clipPath>
<clipPath id="clip3_93_292">
<rect width="30.2319" height="30.2319" fill="white" transform="translate(156.077 569.768)"/>
</clipPath>
<clipPath id="clip4_93_292">
<rect x="87" y="398.654" width="39.9997" height="39.9997" rx="19.9998" transform="rotate(90 87 398.654)" fill="white"/>
</clipPath>
</defs>
</svg>
