<svg width="25" height="16" viewBox="0 0 25 16" fill="none" xmlns="http://www.w3.org/2000/svg">
<path d="M3.45312 15.8789C2.47005 15.8789 1.70182 15.6087 1.14844 15.0684C0.595052 14.528 0.318359 13.7663 0.318359 12.7832V3.10547C0.318359 2.12891 0.604818 1.37044 1.17773 0.830078C1.75716 0.289714 2.51562 0.0195312 3.45312 0.0195312H14.0391C15.0221 0.0195312 15.7741 0.289714 16.2949 0.830078C16.8158 1.37044 17.0762 2.12891 17.0762 3.10547V12.7832C17.0762 13.7663 16.7995 14.528 16.2461 15.0684C15.6927 15.6087 14.9245 15.8789 13.9414 15.8789H3.45312ZM18.4043 10.8301V5.05859L21.959 1.99219C22.1283 1.84245 22.304 1.72526 22.4863 1.64062C22.6751 1.55599 22.8574 1.51367 23.0332 1.51367C23.4108 1.51367 23.7135 1.64062 23.9414 1.89453C24.1758 2.14193 24.293 2.46745 24.293 2.87109V13.0273C24.293 13.431 24.1758 13.7598 23.9414 14.0137C23.7135 14.2611 23.4108 14.3848 23.0332 14.3848C22.8574 14.3848 22.6751 14.3424 22.4863 14.2578C22.304 14.1667 22.1283 14.0495 21.959 13.9062L18.4043 10.8301Z" fill="#292524"/>
</svg>
