<svg width="8" height="13" viewBox="0 0 8 13" fill="none" xmlns="http://www.w3.org/2000/svg">
<path opacity="0.32" d="M0.625 6.56445C0.625 6.44596 0.645508 6.33659 0.686523 6.23633C0.732096 6.13607 0.800456 6.04036 0.891602 5.94922L6.2168 0.740234C6.37174 0.589844 6.55859 0.514648 6.77734 0.514648C6.92773 0.514648 7.06217 0.551107 7.18066 0.624023C7.30371 0.692383 7.40169 0.785807 7.47461 0.904297C7.54753 1.02279 7.58398 1.15723 7.58398 1.30762C7.58398 1.52181 7.49967 1.71322 7.33105 1.88184L2.53223 6.56445L7.33105 11.2471C7.49967 11.4157 7.58398 11.6094 7.58398 11.8281C7.58398 11.974 7.54753 12.1061 7.47461 12.2246C7.40169 12.3477 7.30371 12.4434 7.18066 12.5117C7.06217 12.5846 6.92773 12.6211 6.77734 12.6211C6.55859 12.6211 6.37174 12.5436 6.2168 12.3887L0.891602 7.17969C0.800456 7.08854 0.732096 6.99284 0.686523 6.89258C0.645508 6.79232 0.625 6.68294 0.625 6.56445Z" fill="#292524"/>
</svg>
