<svg width="18" height="20" viewBox="0 0 18 20" fill="none" xmlns="http://www.w3.org/2000/svg">
<path d="M1.06836 19.5391C0.866536 19.5391 0.690755 19.4642 0.541016 19.3145C0.397786 19.1712 0.326172 19.002 0.326172 18.8066V2.57617C0.326172 2.13346 0.427083 1.77865 0.628906 1.51172C0.83724 1.23828 1.10742 1.02669 1.43945 0.876953C1.68685 0.766276 1.93099 0.67513 2.17188 0.603516C2.41276 0.525391 2.69596 0.470052 3.02148 0.4375C3.35352 0.398438 3.77344 0.378906 4.28125 0.378906C5.1862 0.378906 6.01953 0.466797 6.78125 0.642578C7.54948 0.818359 8.29167 1.02344 9.00781 1.25781C9.72396 1.49219 10.4531 1.70052 11.1953 1.88281C11.9375 2.05859 12.7383 2.14648 13.5977 2.14648C14.4375 2.14648 15.0951 2.07812 15.5703 1.94141C16.0521 1.80469 16.4134 1.73633 16.6543 1.73633C16.9408 1.73633 17.1816 1.80794 17.377 1.95117C17.5723 2.0944 17.6699 2.29948 17.6699 2.56641V12.4785C17.6699 12.9277 17.569 13.2891 17.3672 13.5625C17.1654 13.8294 16.8952 14.0378 16.5566 14.1875C16.3092 14.2982 16.0651 14.3926 15.8242 14.4707C15.5833 14.5423 15.3001 14.5977 14.9746 14.6367C14.6491 14.6693 14.2324 14.6855 13.7246 14.6855C12.8652 14.6855 12.0645 14.5977 11.3223 14.4219C10.5801 14.2396 9.85091 14.0345 9.13477 13.8066C8.41862 13.5723 7.67643 13.3672 6.9082 13.1914C6.14648 13.0091 5.31315 12.918 4.4082 12.918C3.69206 12.918 3.10938 12.9831 2.66016 13.1133C2.21745 13.237 1.93424 13.3249 1.81055 13.377V18.8066C1.81055 19.0085 1.73893 19.181 1.5957 19.3242C1.45247 19.4674 1.27669 19.5391 1.06836 19.5391Z" fill="#292524"/>
</svg>
